<svg xmlns="http://www.w3.org/2000/svg" version="1.1" xmlns:xlink="http://www.w3.org/1999/xlink" xmlns:svgjs="http://svgjs.dev/svgjs" width="1500" height="1687" viewBox="0 0 1500 1687"><g transform="matrix(1,0,0,1,4.547473508864641e-13,0)"><svg viewBox="0 0 320 360" data-background-color="#ffffff" preserveAspectRatio="xMidYMid meet" height="1687" width="1500" xmlns="http://www.w3.org/2000/svg" xmlns:xlink="http://www.w3.org/1999/xlink"><g id="tight-bounds" transform="matrix(1,0,0,1,-5.684341886080802e-14,0)"><svg viewBox="0 0 320 360" height="360" width="320"><rect width="320.00000000000017" height="360" fill="url(#54479a5f-7540-4382-b89d-1a7635a3d441)" mask="url(#f0315c87-c441-46d1-b07f-6402b9a02abf)" data-fill-palette-color="tertiary"></rect><g><svg></svg></g><g><svg viewBox="0 0 320 360" height="360" width="320"><g><path d="M20.961 227.22l3.726 4.658-1.863-6.056c-0.466-2.795-3.726 0.466-1.863 1.398M25.153 224.425c1.397 2.329 2.795 4.658 2.795 6.987 0 3.261 2.795 4.658 5.123 5.589-3.261-3.726-5.124-13.974-7.918-12.576M204.017 26.929c7.918 0 15.371-0.932 23.756 0.931 20.495 5.124 37.729 15.371 49.374 29.811l32.606 52.169c1.397 13.042 4.192 27.482 3.726 43.319 3.261 0 2.795-4.658 6.521-5.59-3.726 9.316-5.59 20.961-6.521 34.469-2.329-7.453 0-18.632 0.466-24.687-3.261 5.124-5.124 1.397-5.124-0.932 0.466-3.726-1.397-3.261-2.795-4.658-5.124-4.658-8.384-9.782-12.11-17.7 2.329-6.055 2.795-14.905-4.658-19.563-2.329-1.397-5.124-3.726-6.521-7.453-1.863-5.124-5.124-11.179-4.193-19.097 0.466-2.329-6.987 5.124-11.179 1.863-18.166-12.576-36.332-27.016-58.224-39.127-11.645 0-20.029-4.192-24.221-9.316-3.726-4.658-0.932-10.713 4.658-11.179 3.261 0 6.987-0.932 9.782 0.932 0.466-1.863 2.329-4.192 4.657-4.192M157.904 16.215l0.932 0.466c4.658 0.932 6.987 7.453 12.11 5.124 0 3.261 0.466 6.521-0.466 8.85-1.397 3.726-5.59 3.726-8.85 3.726-31.208-1.863-49.374 11.179-68.471 22.358-5.124 3.261-10.713 5.59-14.906 9.782-20.029 18.632-41.921 35.866-47.045 70.335l-4.192 38.195c-0.466 4.192-5.124 8.384-4.192 13.508l3.26 22.824c-3.261-3.261-5.124 0.932-4.192 2.795 0.466 1.397 2.329 6.055 5.124 1.863 3.726 6.987 7.453 20.495 12.576 26.55 15.837 18.632 36.332 35.4 53.101 52.169 4.192-0.932 7.453-0.932 8.384-3.727 1.397 2.795-1.397 5.59-3.726 6.056 7.453 4.658 15.837 8.85 27.016 9.781 14.44 0.932 27.948 3.261 40.524 6.522 6.521-1.863 13.042-2.795 20.029-3.261 2.329 0 3.726-3.726 6.521-4.658l0.466-4.658c2.795 4.192 2.329-1.397 0.466-4.192 3.261 2.795 4.192 5.124 5.589 6.987 0-1.397 3.726-6.521 3.727-0.466l0.931-6.055c1.397-0.932 1.863 5.124 3.261 0.931 1.397-4.192 4.192-0.932 6.987-2.329-0.932 1.863-0.466 5.59 2.794 3.261l3.727-3.261c2.329 5.59 6.055 3.261 7.918 2.329 20.495-13.042 40.99-28.413 60.553-43.784l-0.466 6.055 2.329-7.453c2.329 2.329 4.192 0.466 5.124-0.931 2.795-4.658 6.521-9.316 12.577-13.508-7.453 20.029-16.303 35.866-27.482 48.908l-4.658 5.59c0 3.261-0.932 7.453-4.658 7.918-1.863 0.466-5.59-0.932-8.384 1.863-1.397 1.863 3.261 5.59-0.466 2.795-3.261-2.329-6.521 0-10.248 0.932-2.795 0.932 1.863 3.726 2.795 5.589 0.932 1.863 1.863 3.726 1.398 6.056l-5.124-5.59c-6.055 3.261-9.782 9.316-14.906 13.974-2.329 1.863-1.397 5.124-1.397 7.918-3.261 0-6.987-0.932-8.85 0.932-1.397 1.863-0.932 4.658-0.932 7.453-4.658-0.466-5.124-7.453-9.315-6.056-4.192 0.932-8.85 1.397-12.577 3.727 2.795 5.59-4.658 2.329-3.726 3.26-6.987-4.192-13.042-7.453-20.495-4.658-15.837-5.124-35.4-2.795-49.84-0.931 0-2.329 0.466-4.658-0.466-5.124-0.932 2.329-3.726 1.397-3.26 1.397-8.85-6.055-17.7-9.782-27.016-14.905-8.384 0.932-16.303-3.261-18.632-5.59-6.521-6.055-13.974-2.795-20.029-4.192-13.042-3.261-17.7-16.769-19.098-26.084-0.932-4.658-4.658-6.521-6.055-6.056-6.055-19.563-15.371-37.263-22.824-55.429-1.863-4.658-1.397-9.316-1.397-14.44 2.329 0.932 4.658 0.466 4.192-2.794-2.329-15.371-7.918-27.016-13.974-38.195 3.261-15.837 3.726-34.469 11.179-48.443 6.521-12.576 18.632-19.098 27.016-29.811 2.795-3.726 2.795-8.85 5.59-12.11 9.316-9.316 18.632-19.098 28.879-27.482 4.658-3.726 10.247 0 17.234-1.397 2.329-8.384 11.645-15.837 20.495-13.508 3.726 0.932 11.179-8.85 13.508-9.782 3.726-1.397 1.863 3.726 1.863 6.987 8.85-6.987 20.961-10.713 32.14-14.906" fill="url(#54479a5f-7540-4382-b89d-1a7635a3d441)" fill-rule="nonzero" stroke="none" stroke-width="1" stroke-linecap="butt" stroke-linejoin="miter" stroke-miterlimit="10" stroke-dasharray="" stroke-dashoffset="0" font-family="none" font-weight="none" font-size="none" text-anchor="none" style="mix-blend-mode: normal" data-fill-palette-color="tertiary"></path></g><g transform="matrix(1,0,0,1,64,144.72290701601605)"><svg viewBox="0 0 192 70.55418596796788" height="70.55418596796788" width="192"><g><svg viewBox="0 0 192 70.55418596796788" height="70.55418596796788" width="192"><g><svg viewBox="0 0 192 70.55418596796788" height="70.55418596796788" width="192"><g id="textblocktransform"><svg viewBox="0 0 192 70.55418596796788" height="70.55418596796788" width="192" id="textblock"><g><svg viewBox="0 0 192 45.98084131611828" height="45.98084131611828" width="192"><g transform="matrix(1,0,0,1,0,0)"><svg width="192" viewBox="4 -28.75 120.05 28.75" height="45.98084131611828" data-palette-color="url(#6241b2e6-54ea-4630-8ecb-d88d1cc4f169)"></svg></g></svg></g><g transform="matrix(1,0,0,1,0,52.69054960433152)"><svg viewBox="0 0 192 17.863636363636363" height="17.863636363636363" width="192"><g transform="matrix(1,0,0,1,0,0)"><svg width="192" viewBox="-12.5 -32 351.98 32.75" height="17.863636363636363" data-palette-color="url(#aedf4071-25af-4c6f-984e-e0cee2402480)"></svg></g></svg></g></svg></g></svg></g><g></g></svg></g></svg></g></svg></g><defs></defs><mask id="3700dd81-26dc-4966-9e8f-ae5a329d08b4"><g id="SvgjsG1750"><svg viewBox="0 0 320 360" height="360" width="320"><g><svg></svg></g><g><svg viewBox="0 0 320 360" height="360" width="320"><g><path d="M20.961 227.22l3.726 4.658-1.863-6.056c-0.466-2.795-3.726 0.466-1.863 1.398M25.153 224.425c1.397 2.329 2.795 4.658 2.795 6.987 0 3.261 2.795 4.658 5.123 5.589-3.261-3.726-5.124-13.974-7.918-12.576M204.017 26.929c7.918 0 15.371-0.932 23.756 0.931 20.495 5.124 37.729 15.371 49.374 29.811l32.606 52.169c1.397 13.042 4.192 27.482 3.726 43.319 3.261 0 2.795-4.658 6.521-5.59-3.726 9.316-5.59 20.961-6.521 34.469-2.329-7.453 0-18.632 0.466-24.687-3.261 5.124-5.124 1.397-5.124-0.932 0.466-3.726-1.397-3.261-2.795-4.658-5.124-4.658-8.384-9.782-12.11-17.7 2.329-6.055 2.795-14.905-4.658-19.563-2.329-1.397-5.124-3.726-6.521-7.453-1.863-5.124-5.124-11.179-4.193-19.097 0.466-2.329-6.987 5.124-11.179 1.863-18.166-12.576-36.332-27.016-58.224-39.127-11.645 0-20.029-4.192-24.221-9.316-3.726-4.658-0.932-10.713 4.658-11.179 3.261 0 6.987-0.932 9.782 0.932 0.466-1.863 2.329-4.192 4.657-4.192M157.904 16.215l0.932 0.466c4.658 0.932 6.987 7.453 12.11 5.124 0 3.261 0.466 6.521-0.466 8.85-1.397 3.726-5.59 3.726-8.85 3.726-31.208-1.863-49.374 11.179-68.471 22.358-5.124 3.261-10.713 5.59-14.906 9.782-20.029 18.632-41.921 35.866-47.045 70.335l-4.192 38.195c-0.466 4.192-5.124 8.384-4.192 13.508l3.26 22.824c-3.261-3.261-5.124 0.932-4.192 2.795 0.466 1.397 2.329 6.055 5.124 1.863 3.726 6.987 7.453 20.495 12.576 26.55 15.837 18.632 36.332 35.4 53.101 52.169 4.192-0.932 7.453-0.932 8.384-3.727 1.397 2.795-1.397 5.59-3.726 6.056 7.453 4.658 15.837 8.85 27.016 9.781 14.44 0.932 27.948 3.261 40.524 6.522 6.521-1.863 13.042-2.795 20.029-3.261 2.329 0 3.726-3.726 6.521-4.658l0.466-4.658c2.795 4.192 2.329-1.397 0.466-4.192 3.261 2.795 4.192 5.124 5.589 6.987 0-1.397 3.726-6.521 3.727-0.466l0.931-6.055c1.397-0.932 1.863 5.124 3.261 0.931 1.397-4.192 4.192-0.932 6.987-2.329-0.932 1.863-0.466 5.59 2.794 3.261l3.727-3.261c2.329 5.59 6.055 3.261 7.918 2.329 20.495-13.042 40.99-28.413 60.553-43.784l-0.466 6.055 2.329-7.453c2.329 2.329 4.192 0.466 5.124-0.931 2.795-4.658 6.521-9.316 12.577-13.508-7.453 20.029-16.303 35.866-27.482 48.908l-4.658 5.59c0 3.261-0.932 7.453-4.658 7.918-1.863 0.466-5.59-0.932-8.384 1.863-1.397 1.863 3.261 5.59-0.466 2.795-3.261-2.329-6.521 0-10.248 0.932-2.795 0.932 1.863 3.726 2.795 5.589 0.932 1.863 1.863 3.726 1.398 6.056l-5.124-5.59c-6.055 3.261-9.782 9.316-14.906 13.974-2.329 1.863-1.397 5.124-1.397 7.918-3.261 0-6.987-0.932-8.85 0.932-1.397 1.863-0.932 4.658-0.932 7.453-4.658-0.466-5.124-7.453-9.315-6.056-4.192 0.932-8.85 1.397-12.577 3.727 2.795 5.59-4.658 2.329-3.726 3.26-6.987-4.192-13.042-7.453-20.495-4.658-15.837-5.124-35.4-2.795-49.84-0.931 0-2.329 0.466-4.658-0.466-5.124-0.932 2.329-3.726 1.397-3.26 1.397-8.85-6.055-17.7-9.782-27.016-14.905-8.384 0.932-16.303-3.261-18.632-5.59-6.521-6.055-13.974-2.795-20.029-4.192-13.042-3.261-17.7-16.769-19.098-26.084-0.932-4.658-4.658-6.521-6.055-6.056-6.055-19.563-15.371-37.263-22.824-55.429-1.863-4.658-1.397-9.316-1.397-14.44 2.329 0.932 4.658 0.466 4.192-2.794-2.329-15.371-7.918-27.016-13.974-38.195 3.261-15.837 3.726-34.469 11.179-48.443 6.521-12.576 18.632-19.098 27.016-29.811 2.795-3.726 2.795-8.85 5.59-12.11 9.316-9.316 18.632-19.098 28.879-27.482 4.658-3.726 10.247 0 17.234-1.397 2.329-8.384 11.645-15.837 20.495-13.508 3.726 0.932 11.179-8.85 13.508-9.782 3.726-1.397 1.863 3.726 1.863 6.987 8.85-6.987 20.961-10.713 32.14-14.906" fill="black" fill-rule="nonzero" stroke="none" stroke-width="1" stroke-linecap="butt" stroke-linejoin="miter" stroke-miterlimit="10" stroke-dasharray="" stroke-dashoffset="0" font-family="none" font-weight="none" font-size="none" text-anchor="none" style="mix-blend-mode: normal"></path></g><g transform="matrix(1,0,0,1,64,144.72290701601605)"><svg viewBox="0 0 192 70.55418596796788" height="70.55418596796788" width="192"><g><svg viewBox="0 0 192 70.55418596796788" height="70.55418596796788" width="192"><g><svg viewBox="0 0 192 70.55418596796788" height="70.55418596796788" width="192"><g id="SvgjsG1749"><svg viewBox="0 0 192 70.55418596796788" height="70.55418596796788" width="192" id="SvgjsSvg1748"><g><svg viewBox="0 0 192 45.98084131611828" height="45.98084131611828" width="192"><g transform="matrix(1,0,0,1,0,0)"><svg width="192" viewBox="4 -28.75 120.05 28.75" height="45.98084131611828" data-palette-color="url(#6241b2e6-54ea-4630-8ecb-d88d1cc4f169)"><path d="M4-3.4L4-25.3 9.85-28.75 20.2-28.75 20.2-22.85 10.5-22.85 10.5-5.65 20-5.65 20 0 9.85 0 4-3.4ZM32.15-19.45L38.65-19.45 38.65-25.3 32.8-28.75 22.45-28.75 22.45-22.85 32.15-22.85 32.15-19.45ZM38.65-3.4L38.65-17.2 22.45-17.2 22.45-11.5 32.15-11.5 32.15-5.65 22.65-5.65 22.65 0 32.8 0 38.65-3.4ZM47.65 0L47.65-28.75 63.65-28.75 63.65-23.1 53.95-23.1 53.95-17.2 63.65-17.2 63.65-11.5 53.95-11.5 53.95-5.85 63.65-5.85 63.65 0 47.65 0ZM76.45 0L82.1-3.4 82.1-12.15 77.4-14.35 82.1-16.6 82.1-25.3 76.45-28.75 66.1-28.75 66.1-23.1 75.8-23.1 75.8-17.2 66.1-17.2 66.1-11.5 75.8-11.5 75.8-5.85 66.1-5.85 66.1 0 76.45 0ZM89.6-14.75L89.6-25.3 95.3-28.75 105.6-28.75 105.6-22.85 95.7-22.85 95.7-17.2 105.6-17.2 105.6-11.35 95.3-11.35 89.6-14.75ZM124.05-3.4L124.05-13.75 118.15-17.2 107.85-17.2 107.85-11.35 117.75-11.35 117.75-5.65 108.05-5.65 108.05 0 118.15 0 124.05-3.4ZM89.6-9.1L95.9-9.1 95.9-5.65 105.6-5.65 105.6 0 95.45 0 89.6-3.4 89.6-9.1ZM117.75-19.45L124.05-19.45 124.05-25.3 118.15-28.75 107.85-28.75 107.85-22.85 117.75-22.85 117.75-19.45Z" opacity="1" transform="matrix(1,0,0,1,0,0)" fill="white" class="wordmark-text-0" id="SvgjsPath1747"></path></svg></g></svg></g><g transform="matrix(1,0,0,1,0,52.69054960433152)"><svg viewBox="0 0 192 17.863636363636363" height="17.863636363636363" width="192"><g transform="matrix(1,0,0,1,0,0)"><svg width="192" viewBox="-12.5 -32 351.98 32.75" height="17.863636363636363" data-palette-color="url(#aedf4071-25af-4c6f-984e-e0cee2402480)"><path d="M19.7 0L10.2 0 15.7-31.25 24.65-31.25 29.75-20.15Q29.9-19.8 29.9-19.15L29.9-19.15Q29.9-18.8 29.88-18.43 29.85-18.05 29.8-17.75L29.8-17.75 30.2-17.75 32.6-31.25 42.1-31.25 36.6 0 27.65 0 22.55-11.1Q22.5-11.3 22.43-11.58 22.35-11.85 22.35-12.2L22.35-12.2Q22.35-12.5 22.38-12.85 22.4-13.2 22.45-13.5L22.45-13.5 22.05-13.5 19.7 0ZM14.15-31.25L13.75-29-7.4-31.25 14.15-31.25ZM13.3-26.45L12.95-24.2-8.25-26.45 13.3-26.45ZM12.5-21.65L12.1-19.4-9.1-21.65 12.5-21.65ZM11.65-16.85L11.25-14.6-9.95-16.85 11.65-16.85ZM10.8-12.05L10.4-9.8-10.8-12.05 10.8-12.05ZM9.95-7.25L9.55-5-11.65-7.25 9.95-7.25ZM9.1-2.4L8.7-0.15-12.5-2.4 9.1-2.4ZM64.65 0.75L64.65 0.75Q58.15 0.75 55.52-1.8 52.9-4.35 52.9-9.35L52.9-9.35Q52.9-10.75 53.07-12.3 53.25-13.85 53.55-15.6L53.55-15.6Q54.5-21.05 56.35-24.68 58.2-28.3 61.55-30.15 64.9-32 70.4-32L70.4-32Q76.9-32 79.52-29.48 82.15-26.95 82.15-21.9L82.15-21.9Q82.15-19.85 81.82-17.2 81.5-14.55 80.72-11.8 79.95-9.05 78.65-6.6 77.35-4.15 75.4-2.4L75.4-2.4Q73.4-0.65 70.75 0.05 68.1 0.75 64.65 0.75ZM58.05-29.6L58.05-29.6 42.75-31.25 60.3-31.25Q59.7-30.9 59.15-30.5 58.6-30.1 58.05-29.6ZM54.55-24.45L54.55-24.45 35.85-26.45 55.55-26.45Q55.3-25.95 55.05-25.48 54.8-25 54.55-24.45ZM64.65-20.8L62.35-7.8 66.3-7.8Q67.95-7.8 69.02-8.2 70.1-8.6 70.45-10.45L70.45-10.45 72.75-23.45 68.75-23.45Q67.1-23.45 66.05-23.05 65-22.65 64.65-20.8L64.65-20.8ZM53.5-21.65L52.9-19.6 33.5-21.65 53.5-21.65ZM51.95-14.75L51.95-14.75 32.3-16.85 52.3-16.85 52.15-15.85Q52.1-15.55 52.05-15.28 52-15 51.95-14.75ZM51.45-9.95L51.45-9.95 31.75-12.05 51.6-12.05Q51.45-10.95 51.45-9.95ZM51.85-5.15L51.85-5.15 32.4-7.25 51.5-7.25Q51.6-6.7 51.67-6.18 51.75-5.65 51.85-5.15ZM54.5-0.55L54.5-0.55 37.2-2.4 53-2.4Q53.65-1.25 54.5-0.55ZM122.49 0L103.49 0 108.99-31.25 118.49-31.25 114.39-8 123.89-8 122.49 0ZM107.44-31.25L107.04-29 85.89-31.25 107.44-31.25ZM106.59-26.45L106.24-24.2 85.04-26.45 106.59-26.45ZM105.79-21.65L105.39-19.4 84.19-21.65 105.79-21.65ZM104.94-16.85L104.54-14.6 83.34-16.85 104.94-16.85ZM104.09-12.05L103.69-9.8 82.49-12.05 104.09-12.05ZM103.24-7.25L102.84-5 81.64-7.25 103.24-7.25ZM102.39-2.4L101.99-0.15 80.79-2.4 102.39-2.4ZM144.09 0L134.59 0 140.09-31.25 149.59-31.25 144.09 0ZM138.54-31.25L138.14-29 116.99-31.25 138.54-31.25ZM137.69-26.45L137.34-24.2 116.14-26.45 137.69-26.45ZM136.89-21.65L136.49-19.4 115.29-21.65 136.89-21.65ZM136.04-16.85L135.64-14.6 114.44-16.85 136.04-16.85ZM135.19-12.05L134.79-9.8 113.59-12.05 135.19-12.05ZM134.34-7.25L133.94-5 112.74-7.25 134.34-7.25ZM133.49-2.4L133.09-0.15 111.89-2.4 133.49-2.4ZM169.59 0L159.69 0 166.99-31.25 179.39-31.25 180.29-15.35 180.64-15.35 187.14-31.25 199.54-31.25 195.84 0 185.89 0 187.99-15.15 187.64-15.15 181.39 0 174.14 0 173.09-15.15 172.84-15.15 169.59 0ZM165.44-31.25L164.94-29 143.99-31.25 165.44-31.25ZM164.34-26.45L163.79-24.2 142.84-26.45 164.34-26.45ZM163.19-21.65L162.69-19.4 141.69-21.65 163.19-21.65ZM162.09-16.85L161.54-14.6 140.54-16.85 162.09-16.85ZM160.94-12.05L160.44-9.8 139.39-12.05 160.94-12.05ZM159.84-7.25L159.29-5 138.24-7.25 159.84-7.25ZM158.69-2.4L158.19-0.15 137.09-2.4 158.69-2.4ZM220.44 0L210.94 0 216.44-31.25 225.94-31.25 220.44 0ZM214.89-31.25L214.49-29 193.34-31.25 214.89-31.25ZM214.04-26.45L213.69-24.2 192.49-26.45 214.04-26.45ZM213.24-21.65L212.84-19.4 191.64-21.65 213.24-21.65ZM212.39-16.85L211.99-14.6 190.79-16.85 212.39-16.85ZM211.54-12.05L211.14-9.8 189.94-12.05 211.54-12.05ZM210.69-7.25L210.29-5 189.09-7.25 210.69-7.25ZM209.84-2.4L209.44-0.15 188.24-2.4 209.84-2.4ZM251.78 0L242.28 0 246.33-23.25 239.48-23.25 240.93-31.25 264.18-31.25 262.73-23.25 255.83-23.25 251.78 0ZM239.33-31.25L238.93-29 217.78-31.25 239.33-31.25ZM238.48-26.45L238.13-24.2 216.93-26.45 238.48-26.45ZM244.53-21.65L244.13-19.4 222.93-21.65 244.53-21.65ZM243.68-16.85L243.28-14.6 222.08-16.85 243.68-16.85ZM242.83-12.05L242.43-9.8 221.23-12.05 242.83-12.05ZM241.98-7.25L241.58-5 220.38-7.25 241.98-7.25ZM241.13-2.4L240.73-0.15 219.53-2.4 241.13-2.4ZM293.63 0L272.48 0 277.98-31.25 298.88-31.25 296.28-23.25 286.03-23.25 285.33-19.05 294.83-19.05 293.53-11.8 284.03-11.8 283.38-8 295.03-8 293.63 0ZM276.43-31.25L276.03-29 254.88-31.25 276.43-31.25ZM275.58-26.45L275.23-24.2 254.03-26.45 275.58-26.45ZM274.78-21.65L274.38-19.4 253.18-21.65 274.78-21.65ZM273.93-16.85L273.53-14.6 252.33-16.85 273.93-16.85ZM273.08-12.05L272.68-9.8 251.48-12.05 273.08-12.05ZM272.23-7.25L271.83-5 250.63-7.25 272.23-7.25ZM271.38-2.4L270.98-0.15 249.78-2.4 271.38-2.4ZM322.08 0L308.78 0 314.28-31.25 327.58-31.25Q334.13-31.25 336.8-28.93 339.48-26.6 339.48-21.6L339.48-21.6Q339.48-19 338.88-15.6L338.88-15.6Q337.93-10.2 336.1-6.75 334.28-3.3 330.95-1.65 327.63 0 322.08 0L322.08 0ZM312.73-31.25L312.33-29 291.18-31.25 312.73-31.25ZM311.88-26.45L311.53-24.2 290.33-26.45 311.88-26.45ZM322.33-23.25L319.68-8 323.63-8Q325.28-8 326.35-8.4 327.43-8.8 327.78-10.65L327.78-10.65 329.53-20.6Q329.58-20.85 329.58-21.03 329.58-21.2 329.58-21.4L329.58-21.4Q329.58-22.7 328.65-22.98 327.73-23.25 326.28-23.25L326.28-23.25 322.33-23.25ZM311.08-21.65L310.68-19.4 289.48-21.65 311.08-21.65ZM310.23-16.85L309.83-14.6 288.63-16.85 310.23-16.85ZM309.38-12.05L308.98-9.8 287.78-12.05 309.38-12.05ZM308.53-7.25L308.13-5 286.93-7.25 308.53-7.25ZM307.68-2.4L307.28-0.15 286.08-2.4 307.68-2.4Z" opacity="1" transform="matrix(1,0,0,1,0,0)" fill="black" class="slogan-text-1" id="SvgjsPath1746"></path></svg></g></svg></g></svg></g></svg></g><g></g></svg></g></svg></g></svg></g><defs><mask></mask></defs></svg><rect width="320" height="360" fill="black" stroke="none" visibility="hidden"></rect></g></mask><linearGradient x1="0.054" x2="0.941" y1="0.5" y2="0.5" id="6241b2e6-54ea-4630-8ecb-d88d1cc4f169"><stop stop-color="#0f3054" offset="0"></stop><stop stop-color="#3b8dcb" offset="0.498"></stop><stop stop-color="#0f3054" offset="1"></stop></linearGradient><rect width="320.00000000000006" height="360" fill="url(#6241b2e6-54ea-4630-8ecb-d88d1cc4f169)" mask="url(#3700dd81-26dc-4966-9e8f-ae5a329d08b4)" data-fill-palette-color="primary"></rect><mask id="45ae011c-bb85-4659-b792-ddc194b9436a"><g id="SvgjsG1759"><svg viewBox="0 0 320 360" height="360" width="320"><g><svg></svg></g><g><svg viewBox="0 0 320 360" height="360" width="320"><g><path d="M20.961 227.22l3.726 4.658-1.863-6.056c-0.466-2.795-3.726 0.466-1.863 1.398M25.153 224.425c1.397 2.329 2.795 4.658 2.795 6.987 0 3.261 2.795 4.658 5.123 5.589-3.261-3.726-5.124-13.974-7.918-12.576M204.017 26.929c7.918 0 15.371-0.932 23.756 0.931 20.495 5.124 37.729 15.371 49.374 29.811l32.606 52.169c1.397 13.042 4.192 27.482 3.726 43.319 3.261 0 2.795-4.658 6.521-5.59-3.726 9.316-5.59 20.961-6.521 34.469-2.329-7.453 0-18.632 0.466-24.687-3.261 5.124-5.124 1.397-5.124-0.932 0.466-3.726-1.397-3.261-2.795-4.658-5.124-4.658-8.384-9.782-12.11-17.7 2.329-6.055 2.795-14.905-4.658-19.563-2.329-1.397-5.124-3.726-6.521-7.453-1.863-5.124-5.124-11.179-4.193-19.097 0.466-2.329-6.987 5.124-11.179 1.863-18.166-12.576-36.332-27.016-58.224-39.127-11.645 0-20.029-4.192-24.221-9.316-3.726-4.658-0.932-10.713 4.658-11.179 3.261 0 6.987-0.932 9.782 0.932 0.466-1.863 2.329-4.192 4.657-4.192M157.904 16.215l0.932 0.466c4.658 0.932 6.987 7.453 12.11 5.124 0 3.261 0.466 6.521-0.466 8.85-1.397 3.726-5.59 3.726-8.85 3.726-31.208-1.863-49.374 11.179-68.471 22.358-5.124 3.261-10.713 5.59-14.906 9.782-20.029 18.632-41.921 35.866-47.045 70.335l-4.192 38.195c-0.466 4.192-5.124 8.384-4.192 13.508l3.26 22.824c-3.261-3.261-5.124 0.932-4.192 2.795 0.466 1.397 2.329 6.055 5.124 1.863 3.726 6.987 7.453 20.495 12.576 26.55 15.837 18.632 36.332 35.4 53.101 52.169 4.192-0.932 7.453-0.932 8.384-3.727 1.397 2.795-1.397 5.59-3.726 6.056 7.453 4.658 15.837 8.85 27.016 9.781 14.44 0.932 27.948 3.261 40.524 6.522 6.521-1.863 13.042-2.795 20.029-3.261 2.329 0 3.726-3.726 6.521-4.658l0.466-4.658c2.795 4.192 2.329-1.397 0.466-4.192 3.261 2.795 4.192 5.124 5.589 6.987 0-1.397 3.726-6.521 3.727-0.466l0.931-6.055c1.397-0.932 1.863 5.124 3.261 0.931 1.397-4.192 4.192-0.932 6.987-2.329-0.932 1.863-0.466 5.59 2.794 3.261l3.727-3.261c2.329 5.59 6.055 3.261 7.918 2.329 20.495-13.042 40.99-28.413 60.553-43.784l-0.466 6.055 2.329-7.453c2.329 2.329 4.192 0.466 5.124-0.931 2.795-4.658 6.521-9.316 12.577-13.508-7.453 20.029-16.303 35.866-27.482 48.908l-4.658 5.59c0 3.261-0.932 7.453-4.658 7.918-1.863 0.466-5.59-0.932-8.384 1.863-1.397 1.863 3.261 5.59-0.466 2.795-3.261-2.329-6.521 0-10.248 0.932-2.795 0.932 1.863 3.726 2.795 5.589 0.932 1.863 1.863 3.726 1.398 6.056l-5.124-5.59c-6.055 3.261-9.782 9.316-14.906 13.974-2.329 1.863-1.397 5.124-1.397 7.918-3.261 0-6.987-0.932-8.85 0.932-1.397 1.863-0.932 4.658-0.932 7.453-4.658-0.466-5.124-7.453-9.315-6.056-4.192 0.932-8.85 1.397-12.577 3.727 2.795 5.59-4.658 2.329-3.726 3.26-6.987-4.192-13.042-7.453-20.495-4.658-15.837-5.124-35.4-2.795-49.84-0.931 0-2.329 0.466-4.658-0.466-5.124-0.932 2.329-3.726 1.397-3.26 1.397-8.85-6.055-17.7-9.782-27.016-14.905-8.384 0.932-16.303-3.261-18.632-5.59-6.521-6.055-13.974-2.795-20.029-4.192-13.042-3.261-17.7-16.769-19.098-26.084-0.932-4.658-4.658-6.521-6.055-6.056-6.055-19.563-15.371-37.263-22.824-55.429-1.863-4.658-1.397-9.316-1.397-14.44 2.329 0.932 4.658 0.466 4.192-2.794-2.329-15.371-7.918-27.016-13.974-38.195 3.261-15.837 3.726-34.469 11.179-48.443 6.521-12.576 18.632-19.098 27.016-29.811 2.795-3.726 2.795-8.85 5.59-12.11 9.316-9.316 18.632-19.098 28.879-27.482 4.658-3.726 10.247 0 17.234-1.397 2.329-8.384 11.645-15.837 20.495-13.508 3.726 0.932 11.179-8.85 13.508-9.782 3.726-1.397 1.863 3.726 1.863 6.987 8.85-6.987 20.961-10.713 32.14-14.906" fill="black" fill-rule="nonzero" stroke="none" stroke-width="1" stroke-linecap="butt" stroke-linejoin="miter" stroke-miterlimit="10" stroke-dasharray="" stroke-dashoffset="0" font-family="none" font-weight="none" font-size="none" text-anchor="none" style="mix-blend-mode: normal"></path></g><g transform="matrix(1,0,0,1,64,144.72290701601605)"><svg viewBox="0 0 192 70.55418596796788" height="70.55418596796788" width="192"><g><svg viewBox="0 0 192 70.55418596796788" height="70.55418596796788" width="192"><g><svg viewBox="0 0 192 70.55418596796788" height="70.55418596796788" width="192"><g id="SvgjsG1758"><svg viewBox="0 0 192 70.55418596796788" height="70.55418596796788" width="192" id="SvgjsSvg1757"><g><svg viewBox="0 0 192 45.98084131611828" height="45.98084131611828" width="192"><g transform="matrix(1,0,0,1,0,0)"><svg width="192" viewBox="4 -28.75 120.05 28.75" height="45.98084131611828" data-palette-color="url(#6241b2e6-54ea-4630-8ecb-d88d1cc4f169)"></svg></g></svg></g><g transform="matrix(1,0,0,1,0,52.69054960433152)"><svg viewBox="0 0 192 17.863636363636363" height="17.863636363636363" width="192"><g transform="matrix(1,0,0,1,0,0)"><svg width="192" viewBox="-12.5 -32 351.98 32.75" height="17.863636363636363" data-palette-color="url(#aedf4071-25af-4c6f-984e-e0cee2402480)"><path d="M19.7 0L10.2 0 15.7-31.25 24.65-31.25 29.75-20.15Q29.9-19.8 29.9-19.15L29.9-19.15Q29.9-18.8 29.88-18.43 29.85-18.05 29.8-17.75L29.8-17.75 30.2-17.75 32.6-31.25 42.1-31.25 36.6 0 27.65 0 22.55-11.1Q22.5-11.3 22.43-11.58 22.35-11.85 22.35-12.2L22.35-12.2Q22.35-12.5 22.38-12.85 22.4-13.2 22.45-13.5L22.45-13.5 22.05-13.5 19.7 0ZM14.15-31.25L13.75-29-7.4-31.25 14.15-31.25ZM13.3-26.45L12.95-24.2-8.25-26.45 13.3-26.45ZM12.5-21.65L12.1-19.4-9.1-21.65 12.5-21.65ZM11.65-16.85L11.25-14.6-9.95-16.85 11.65-16.85ZM10.8-12.05L10.4-9.8-10.8-12.05 10.8-12.05ZM9.95-7.25L9.55-5-11.65-7.25 9.95-7.25ZM9.1-2.4L8.7-0.15-12.5-2.4 9.1-2.4ZM64.65 0.75L64.65 0.75Q58.15 0.75 55.52-1.8 52.9-4.35 52.9-9.35L52.9-9.35Q52.9-10.75 53.07-12.3 53.25-13.85 53.55-15.6L53.55-15.6Q54.5-21.05 56.35-24.68 58.2-28.3 61.55-30.15 64.9-32 70.4-32L70.4-32Q76.9-32 79.52-29.48 82.15-26.95 82.15-21.9L82.15-21.9Q82.15-19.85 81.82-17.2 81.5-14.55 80.72-11.8 79.95-9.05 78.65-6.6 77.35-4.15 75.4-2.4L75.4-2.4Q73.4-0.65 70.75 0.05 68.1 0.75 64.65 0.75ZM58.05-29.6L58.05-29.6 42.75-31.25 60.3-31.25Q59.7-30.9 59.15-30.5 58.6-30.1 58.05-29.6ZM54.55-24.45L54.55-24.45 35.85-26.45 55.55-26.45Q55.3-25.95 55.05-25.48 54.8-25 54.55-24.45ZM64.65-20.8L62.35-7.8 66.3-7.8Q67.95-7.8 69.02-8.2 70.1-8.6 70.45-10.45L70.45-10.45 72.75-23.45 68.75-23.45Q67.1-23.45 66.05-23.05 65-22.65 64.65-20.8L64.65-20.8ZM53.5-21.65L52.9-19.6 33.5-21.65 53.5-21.65ZM51.95-14.75L51.95-14.75 32.3-16.85 52.3-16.85 52.15-15.85Q52.1-15.55 52.05-15.28 52-15 51.95-14.75ZM51.45-9.95L51.45-9.95 31.75-12.05 51.6-12.05Q51.45-10.95 51.45-9.95ZM51.85-5.15L51.85-5.15 32.4-7.25 51.5-7.25Q51.6-6.7 51.67-6.18 51.75-5.65 51.85-5.15ZM54.5-0.55L54.5-0.55 37.2-2.4 53-2.4Q53.65-1.25 54.5-0.55ZM122.49 0L103.49 0 108.99-31.25 118.49-31.25 114.39-8 123.89-8 122.49 0ZM107.44-31.25L107.04-29 85.89-31.25 107.44-31.25ZM106.59-26.45L106.24-24.2 85.04-26.45 106.59-26.45ZM105.79-21.65L105.39-19.4 84.19-21.65 105.79-21.65ZM104.94-16.85L104.54-14.6 83.34-16.85 104.94-16.85ZM104.09-12.05L103.69-9.8 82.49-12.05 104.09-12.05ZM103.24-7.25L102.84-5 81.64-7.25 103.24-7.25ZM102.39-2.4L101.99-0.15 80.79-2.4 102.39-2.4ZM144.09 0L134.59 0 140.09-31.25 149.59-31.25 144.09 0ZM138.54-31.25L138.14-29 116.99-31.25 138.54-31.25ZM137.69-26.45L137.34-24.2 116.14-26.45 137.69-26.45ZM136.89-21.65L136.49-19.4 115.29-21.65 136.89-21.65ZM136.04-16.85L135.64-14.6 114.44-16.85 136.04-16.85ZM135.19-12.05L134.79-9.8 113.59-12.05 135.19-12.05ZM134.34-7.25L133.94-5 112.74-7.25 134.34-7.25ZM133.49-2.4L133.09-0.15 111.89-2.4 133.49-2.4ZM169.59 0L159.69 0 166.99-31.25 179.39-31.25 180.29-15.35 180.64-15.35 187.14-31.25 199.54-31.25 195.84 0 185.89 0 187.99-15.15 187.64-15.15 181.39 0 174.14 0 173.09-15.15 172.84-15.15 169.59 0ZM165.44-31.25L164.94-29 143.99-31.25 165.44-31.25ZM164.34-26.45L163.79-24.2 142.84-26.45 164.34-26.45ZM163.19-21.65L162.69-19.4 141.69-21.65 163.19-21.65ZM162.09-16.85L161.54-14.6 140.54-16.85 162.09-16.85ZM160.94-12.05L160.44-9.8 139.39-12.05 160.94-12.05ZM159.84-7.25L159.29-5 138.24-7.25 159.84-7.25ZM158.69-2.4L158.19-0.15 137.09-2.4 158.69-2.4ZM220.44 0L210.94 0 216.44-31.25 225.94-31.25 220.44 0ZM214.89-31.25L214.49-29 193.34-31.25 214.89-31.25ZM214.04-26.45L213.69-24.2 192.49-26.45 214.04-26.45ZM213.24-21.65L212.84-19.4 191.64-21.65 213.24-21.65ZM212.39-16.85L211.99-14.6 190.79-16.85 212.39-16.85ZM211.54-12.05L211.14-9.8 189.94-12.05 211.54-12.05ZM210.69-7.25L210.29-5 189.09-7.25 210.69-7.25ZM209.84-2.4L209.44-0.15 188.24-2.4 209.84-2.4ZM251.78 0L242.28 0 246.33-23.25 239.48-23.25 240.93-31.25 264.18-31.25 262.73-23.25 255.83-23.25 251.78 0ZM239.33-31.25L238.93-29 217.78-31.25 239.33-31.25ZM238.48-26.45L238.13-24.2 216.93-26.45 238.48-26.45ZM244.53-21.65L244.13-19.4 222.93-21.65 244.53-21.65ZM243.68-16.85L243.28-14.6 222.08-16.85 243.68-16.85ZM242.83-12.05L242.43-9.8 221.23-12.05 242.83-12.05ZM241.98-7.25L241.58-5 220.38-7.25 241.98-7.25ZM241.13-2.4L240.73-0.15 219.53-2.4 241.13-2.4ZM293.63 0L272.48 0 277.98-31.25 298.88-31.25 296.28-23.25 286.03-23.25 285.33-19.05 294.83-19.05 293.53-11.8 284.03-11.8 283.38-8 295.03-8 293.63 0ZM276.43-31.25L276.03-29 254.88-31.25 276.43-31.25ZM275.58-26.45L275.23-24.2 254.03-26.45 275.58-26.45ZM274.78-21.65L274.38-19.4 253.18-21.65 274.78-21.65ZM273.93-16.85L273.53-14.6 252.33-16.85 273.93-16.85ZM273.08-12.05L272.68-9.8 251.48-12.05 273.08-12.05ZM272.23-7.25L271.83-5 250.63-7.25 272.23-7.25ZM271.38-2.4L270.98-0.15 249.78-2.4 271.38-2.4ZM322.08 0L308.78 0 314.28-31.25 327.58-31.25Q334.13-31.25 336.8-28.93 339.48-26.6 339.48-21.6L339.48-21.6Q339.48-19 338.88-15.6L338.88-15.6Q337.93-10.2 336.1-6.75 334.28-3.3 330.95-1.65 327.63 0 322.08 0L322.08 0ZM312.73-31.25L312.33-29 291.18-31.25 312.73-31.25ZM311.88-26.45L311.53-24.2 290.33-26.45 311.88-26.45ZM322.33-23.25L319.68-8 323.63-8Q325.28-8 326.35-8.4 327.43-8.8 327.78-10.65L327.78-10.65 329.53-20.6Q329.58-20.85 329.58-21.03 329.58-21.2 329.58-21.4L329.58-21.4Q329.58-22.7 328.65-22.98 327.73-23.25 326.28-23.25L326.28-23.25 322.33-23.25ZM311.08-21.65L310.68-19.4 289.48-21.65 311.08-21.65ZM310.23-16.85L309.83-14.6 288.63-16.85 310.23-16.85ZM309.38-12.05L308.98-9.8 287.78-12.05 309.38-12.05ZM308.53-7.25L308.13-5 286.93-7.25 308.53-7.25ZM307.68-2.4L307.28-0.15 286.08-2.4 307.68-2.4Z" opacity="1" transform="matrix(1,0,0,1,0,0)" fill="white" class="slogan-text-1" id="SvgjsPath1756"></path></svg></g></svg></g></svg></g></svg></g><g></g></svg></g></svg></g></svg></g><defs><mask></mask></defs><mask><g id="SvgjsG1755"><svg viewBox="0 0 320 360" height="360" width="320"><g><svg></svg></g><g><svg viewBox="0 0 320 360" height="360" width="320"><g><path d="M20.961 227.22l3.726 4.658-1.863-6.056c-0.466-2.795-3.726 0.466-1.863 1.398M25.153 224.425c1.397 2.329 2.795 4.658 2.795 6.987 0 3.261 2.795 4.658 5.123 5.589-3.261-3.726-5.124-13.974-7.918-12.576M204.017 26.929c7.918 0 15.371-0.932 23.756 0.931 20.495 5.124 37.729 15.371 49.374 29.811l32.606 52.169c1.397 13.042 4.192 27.482 3.726 43.319 3.261 0 2.795-4.658 6.521-5.59-3.726 9.316-5.59 20.961-6.521 34.469-2.329-7.453 0-18.632 0.466-24.687-3.261 5.124-5.124 1.397-5.124-0.932 0.466-3.726-1.397-3.261-2.795-4.658-5.124-4.658-8.384-9.782-12.11-17.7 2.329-6.055 2.795-14.905-4.658-19.563-2.329-1.397-5.124-3.726-6.521-7.453-1.863-5.124-5.124-11.179-4.193-19.097 0.466-2.329-6.987 5.124-11.179 1.863-18.166-12.576-36.332-27.016-58.224-39.127-11.645 0-20.029-4.192-24.221-9.316-3.726-4.658-0.932-10.713 4.658-11.179 3.261 0 6.987-0.932 9.782 0.932 0.466-1.863 2.329-4.192 4.657-4.192M157.904 16.215l0.932 0.466c4.658 0.932 6.987 7.453 12.11 5.124 0 3.261 0.466 6.521-0.466 8.85-1.397 3.726-5.59 3.726-8.85 3.726-31.208-1.863-49.374 11.179-68.471 22.358-5.124 3.261-10.713 5.59-14.906 9.782-20.029 18.632-41.921 35.866-47.045 70.335l-4.192 38.195c-0.466 4.192-5.124 8.384-4.192 13.508l3.26 22.824c-3.261-3.261-5.124 0.932-4.192 2.795 0.466 1.397 2.329 6.055 5.124 1.863 3.726 6.987 7.453 20.495 12.576 26.55 15.837 18.632 36.332 35.4 53.101 52.169 4.192-0.932 7.453-0.932 8.384-3.727 1.397 2.795-1.397 5.59-3.726 6.056 7.453 4.658 15.837 8.85 27.016 9.781 14.44 0.932 27.948 3.261 40.524 6.522 6.521-1.863 13.042-2.795 20.029-3.261 2.329 0 3.726-3.726 6.521-4.658l0.466-4.658c2.795 4.192 2.329-1.397 0.466-4.192 3.261 2.795 4.192 5.124 5.589 6.987 0-1.397 3.726-6.521 3.727-0.466l0.931-6.055c1.397-0.932 1.863 5.124 3.261 0.931 1.397-4.192 4.192-0.932 6.987-2.329-0.932 1.863-0.466 5.59 2.794 3.261l3.727-3.261c2.329 5.59 6.055 3.261 7.918 2.329 20.495-13.042 40.99-28.413 60.553-43.784l-0.466 6.055 2.329-7.453c2.329 2.329 4.192 0.466 5.124-0.931 2.795-4.658 6.521-9.316 12.577-13.508-7.453 20.029-16.303 35.866-27.482 48.908l-4.658 5.59c0 3.261-0.932 7.453-4.658 7.918-1.863 0.466-5.59-0.932-8.384 1.863-1.397 1.863 3.261 5.59-0.466 2.795-3.261-2.329-6.521 0-10.248 0.932-2.795 0.932 1.863 3.726 2.795 5.589 0.932 1.863 1.863 3.726 1.398 6.056l-5.124-5.59c-6.055 3.261-9.782 9.316-14.906 13.974-2.329 1.863-1.397 5.124-1.397 7.918-3.261 0-6.987-0.932-8.85 0.932-1.397 1.863-0.932 4.658-0.932 7.453-4.658-0.466-5.124-7.453-9.315-6.056-4.192 0.932-8.85 1.397-12.577 3.727 2.795 5.59-4.658 2.329-3.726 3.26-6.987-4.192-13.042-7.453-20.495-4.658-15.837-5.124-35.4-2.795-49.84-0.931 0-2.329 0.466-4.658-0.466-5.124-0.932 2.329-3.726 1.397-3.26 1.397-8.85-6.055-17.7-9.782-27.016-14.905-8.384 0.932-16.303-3.261-18.632-5.59-6.521-6.055-13.974-2.795-20.029-4.192-13.042-3.261-17.7-16.769-19.098-26.084-0.932-4.658-4.658-6.521-6.055-6.056-6.055-19.563-15.371-37.263-22.824-55.429-1.863-4.658-1.397-9.316-1.397-14.44 2.329 0.932 4.658 0.466 4.192-2.794-2.329-15.371-7.918-27.016-13.974-38.195 3.261-15.837 3.726-34.469 11.179-48.443 6.521-12.576 18.632-19.098 27.016-29.811 2.795-3.726 2.795-8.85 5.59-12.11 9.316-9.316 18.632-19.098 28.879-27.482 4.658-3.726 10.247 0 17.234-1.397 2.329-8.384 11.645-15.837 20.495-13.508 3.726 0.932 11.179-8.85 13.508-9.782 3.726-1.397 1.863 3.726 1.863 6.987 8.85-6.987 20.961-10.713 32.14-14.906" fill="black" fill-rule="nonzero" stroke="none" stroke-width="1" stroke-linecap="butt" stroke-linejoin="miter" stroke-miterlimit="10" stroke-dasharray="" stroke-dashoffset="0" font-family="none" font-weight="none" font-size="none" text-anchor="none" style="mix-blend-mode: normal"></path></g><g transform="matrix(1,0,0,1,64,144.72290701601605)"><svg viewBox="0 0 192 70.55418596796788" height="70.55418596796788" width="192"><g><svg viewBox="0 0 192 70.55418596796788" height="70.55418596796788" width="192"><g><svg viewBox="0 0 192 70.55418596796788" height="70.55418596796788" width="192"><g id="SvgjsG1754"><svg viewBox="0 0 192 70.55418596796788" height="70.55418596796788" width="192" id="SvgjsSvg1753"><g><svg viewBox="0 0 192 45.98084131611828" height="45.98084131611828" width="192"><g transform="matrix(1,0,0,1,0,0)"><svg width="192" viewBox="4 -28.75 120.05 28.75" height="45.98084131611828" data-palette-color="url(#6241b2e6-54ea-4630-8ecb-d88d1cc4f169)"><path d="M4-3.4L4-25.3 9.85-28.75 20.2-28.75 20.2-22.85 10.5-22.85 10.5-5.65 20-5.65 20 0 9.85 0 4-3.4ZM32.15-19.45L38.65-19.45 38.65-25.3 32.8-28.75 22.45-28.75 22.45-22.85 32.15-22.85 32.15-19.45ZM38.65-3.4L38.65-17.2 22.45-17.2 22.45-11.5 32.15-11.5 32.15-5.65 22.65-5.65 22.65 0 32.8 0 38.65-3.4ZM47.65 0L47.65-28.75 63.65-28.75 63.65-23.1 53.95-23.1 53.95-17.2 63.65-17.2 63.65-11.5 53.95-11.5 53.95-5.85 63.65-5.85 63.65 0 47.65 0ZM76.45 0L82.1-3.4 82.1-12.15 77.4-14.35 82.1-16.6 82.1-25.3 76.45-28.75 66.1-28.75 66.1-23.1 75.8-23.1 75.8-17.2 66.1-17.2 66.1-11.5 75.8-11.5 75.8-5.85 66.1-5.85 66.1 0 76.45 0ZM89.6-14.75L89.6-25.3 95.3-28.75 105.6-28.75 105.6-22.85 95.7-22.85 95.7-17.2 105.6-17.2 105.6-11.35 95.3-11.35 89.6-14.75ZM124.05-3.4L124.05-13.75 118.15-17.2 107.85-17.2 107.85-11.35 117.75-11.35 117.75-5.65 108.05-5.65 108.05 0 118.15 0 124.05-3.4ZM89.6-9.1L95.9-9.1 95.9-5.65 105.6-5.65 105.6 0 95.45 0 89.6-3.4 89.6-9.1ZM117.75-19.45L124.05-19.45 124.05-25.3 118.15-28.75 107.85-28.75 107.85-22.85 117.75-22.85 117.75-19.45Z" opacity="1" transform="matrix(1,0,0,1,0,0)" fill="black" class="wordmark-text-0" id="SvgjsPath1752"></path></svg></g></svg></g><g transform="matrix(1,0,0,1,0,52.69054960433152)"><svg viewBox="0 0 192 17.863636363636363" height="17.863636363636363" width="192"><g transform="matrix(1,0,0,1,0,0)"><svg width="192" viewBox="-12.5 -32 351.98 32.75" height="17.863636363636363" data-palette-color="url(#aedf4071-25af-4c6f-984e-e0cee2402480)"><path d="M19.7 0L10.2 0 15.7-31.25 24.65-31.25 29.75-20.15Q29.9-19.8 29.9-19.15L29.9-19.15Q29.9-18.8 29.88-18.43 29.85-18.05 29.8-17.75L29.8-17.75 30.2-17.75 32.6-31.25 42.1-31.25 36.6 0 27.65 0 22.55-11.1Q22.5-11.3 22.43-11.58 22.35-11.85 22.35-12.2L22.35-12.2Q22.35-12.5 22.38-12.85 22.4-13.2 22.45-13.5L22.45-13.5 22.05-13.5 19.7 0ZM14.15-31.25L13.75-29-7.4-31.25 14.15-31.25ZM13.3-26.45L12.95-24.2-8.25-26.45 13.3-26.45ZM12.5-21.65L12.1-19.4-9.1-21.65 12.5-21.65ZM11.65-16.85L11.25-14.6-9.95-16.85 11.65-16.85ZM10.8-12.05L10.4-9.8-10.8-12.05 10.8-12.05ZM9.95-7.25L9.55-5-11.65-7.25 9.95-7.25ZM9.1-2.4L8.7-0.15-12.5-2.4 9.1-2.4ZM64.65 0.75L64.65 0.75Q58.15 0.75 55.52-1.8 52.9-4.35 52.9-9.35L52.9-9.35Q52.9-10.75 53.07-12.3 53.25-13.85 53.55-15.6L53.55-15.6Q54.5-21.05 56.35-24.68 58.2-28.3 61.55-30.15 64.9-32 70.4-32L70.4-32Q76.9-32 79.52-29.48 82.15-26.95 82.15-21.9L82.15-21.9Q82.15-19.85 81.82-17.2 81.5-14.55 80.72-11.8 79.95-9.05 78.65-6.6 77.35-4.15 75.4-2.4L75.4-2.4Q73.4-0.65 70.75 0.05 68.1 0.75 64.65 0.75ZM58.05-29.6L58.05-29.6 42.75-31.25 60.3-31.25Q59.7-30.9 59.15-30.5 58.6-30.1 58.05-29.6ZM54.55-24.45L54.55-24.45 35.85-26.45 55.55-26.45Q55.3-25.95 55.05-25.48 54.8-25 54.55-24.45ZM64.65-20.8L62.35-7.8 66.3-7.8Q67.95-7.8 69.02-8.2 70.1-8.6 70.45-10.45L70.45-10.45 72.75-23.45 68.75-23.45Q67.1-23.45 66.05-23.05 65-22.65 64.65-20.8L64.65-20.8ZM53.5-21.65L52.9-19.6 33.5-21.65 53.5-21.65ZM51.95-14.75L51.95-14.75 32.3-16.85 52.3-16.85 52.15-15.85Q52.1-15.55 52.05-15.28 52-15 51.95-14.75ZM51.45-9.95L51.45-9.95 31.75-12.05 51.6-12.05Q51.45-10.95 51.45-9.95ZM51.85-5.15L51.85-5.15 32.4-7.25 51.5-7.25Q51.6-6.7 51.67-6.18 51.75-5.65 51.85-5.15ZM54.5-0.55L54.5-0.55 37.2-2.4 53-2.4Q53.65-1.25 54.5-0.55ZM122.49 0L103.49 0 108.99-31.25 118.49-31.25 114.39-8 123.89-8 122.49 0ZM107.44-31.25L107.04-29 85.89-31.25 107.44-31.25ZM106.59-26.45L106.24-24.2 85.04-26.45 106.59-26.45ZM105.79-21.65L105.39-19.4 84.19-21.65 105.79-21.65ZM104.94-16.85L104.54-14.6 83.34-16.85 104.94-16.85ZM104.09-12.05L103.69-9.8 82.49-12.05 104.09-12.05ZM103.24-7.25L102.84-5 81.64-7.25 103.24-7.25ZM102.39-2.4L101.99-0.15 80.79-2.4 102.39-2.4ZM144.09 0L134.59 0 140.09-31.25 149.59-31.25 144.09 0ZM138.54-31.25L138.14-29 116.99-31.25 138.54-31.25ZM137.69-26.45L137.34-24.2 116.14-26.45 137.69-26.45ZM136.89-21.65L136.49-19.4 115.29-21.65 136.89-21.65ZM136.04-16.85L135.64-14.6 114.44-16.85 136.04-16.85ZM135.19-12.05L134.79-9.8 113.59-12.05 135.19-12.05ZM134.34-7.25L133.94-5 112.74-7.25 134.34-7.25ZM133.49-2.4L133.09-0.15 111.89-2.4 133.49-2.4ZM169.59 0L159.69 0 166.99-31.25 179.39-31.25 180.29-15.35 180.64-15.35 187.14-31.25 199.54-31.25 195.84 0 185.89 0 187.99-15.15 187.64-15.15 181.39 0 174.14 0 173.09-15.15 172.84-15.15 169.59 0ZM165.44-31.25L164.94-29 143.99-31.25 165.44-31.25ZM164.34-26.45L163.79-24.2 142.84-26.45 164.34-26.45ZM163.19-21.65L162.69-19.4 141.69-21.65 163.19-21.65ZM162.09-16.85L161.54-14.6 140.54-16.85 162.09-16.85ZM160.94-12.05L160.44-9.8 139.39-12.05 160.94-12.05ZM159.84-7.25L159.29-5 138.24-7.25 159.84-7.25ZM158.69-2.4L158.19-0.15 137.09-2.4 158.69-2.4ZM220.44 0L210.94 0 216.44-31.25 225.94-31.25 220.44 0ZM214.89-31.25L214.49-29 193.34-31.25 214.89-31.25ZM214.04-26.45L213.69-24.2 192.49-26.45 214.04-26.45ZM213.24-21.65L212.84-19.4 191.64-21.65 213.24-21.65ZM212.39-16.85L211.99-14.6 190.79-16.85 212.39-16.85ZM211.54-12.05L211.14-9.8 189.94-12.05 211.54-12.05ZM210.69-7.25L210.29-5 189.09-7.25 210.69-7.25ZM209.84-2.4L209.44-0.15 188.24-2.4 209.84-2.4ZM251.78 0L242.28 0 246.33-23.25 239.48-23.25 240.93-31.25 264.18-31.25 262.73-23.25 255.83-23.25 251.78 0ZM239.33-31.25L238.93-29 217.78-31.25 239.33-31.25ZM238.48-26.45L238.13-24.2 216.93-26.45 238.48-26.45ZM244.53-21.65L244.13-19.4 222.93-21.65 244.53-21.65ZM243.68-16.85L243.28-14.6 222.08-16.85 243.68-16.85ZM242.83-12.05L242.43-9.8 221.23-12.05 242.83-12.05ZM241.98-7.25L241.58-5 220.38-7.25 241.98-7.25ZM241.13-2.4L240.73-0.15 219.53-2.4 241.13-2.4ZM293.63 0L272.48 0 277.98-31.25 298.88-31.25 296.28-23.25 286.03-23.25 285.33-19.05 294.83-19.05 293.53-11.8 284.03-11.8 283.38-8 295.03-8 293.63 0ZM276.43-31.25L276.03-29 254.88-31.25 276.43-31.25ZM275.58-26.45L275.23-24.2 254.03-26.45 275.58-26.45ZM274.78-21.65L274.38-19.4 253.18-21.65 274.78-21.65ZM273.93-16.85L273.53-14.6 252.33-16.85 273.93-16.85ZM273.08-12.05L272.68-9.8 251.48-12.05 273.08-12.05ZM272.23-7.25L271.83-5 250.63-7.25 272.23-7.25ZM271.38-2.4L270.98-0.15 249.78-2.4 271.38-2.4ZM322.08 0L308.78 0 314.28-31.25 327.58-31.25Q334.13-31.25 336.8-28.93 339.48-26.6 339.48-21.6L339.48-21.6Q339.48-19 338.88-15.6L338.88-15.6Q337.93-10.2 336.1-6.75 334.28-3.3 330.95-1.65 327.63 0 322.08 0L322.08 0ZM312.73-31.25L312.33-29 291.18-31.25 312.73-31.25ZM311.88-26.45L311.53-24.2 290.33-26.45 311.88-26.45ZM322.33-23.25L319.68-8 323.63-8Q325.28-8 326.35-8.4 327.43-8.8 327.78-10.65L327.78-10.65 329.53-20.6Q329.58-20.85 329.58-21.03 329.58-21.2 329.58-21.4L329.58-21.4Q329.58-22.7 328.65-22.98 327.73-23.25 326.28-23.25L326.28-23.25 322.33-23.25ZM311.08-21.65L310.68-19.4 289.48-21.65 311.08-21.65ZM310.23-16.85L309.83-14.6 288.63-16.85 310.23-16.85ZM309.38-12.05L308.98-9.8 287.78-12.05 309.38-12.05ZM308.53-7.25L308.13-5 286.93-7.25 308.53-7.25ZM307.68-2.4L307.28-0.15 286.08-2.4 307.68-2.4Z" opacity="1" transform="matrix(1,0,0,1,0,0)" fill="black" class="slogan-text-1" id="SvgjsPath1751"></path></svg></g></svg></g></svg></g></svg></g><g></g></svg></g></svg></g></svg></g><defs><mask></mask></defs></svg><rect width="320" height="360" fill="black" stroke="none" visibility="hidden"></rect></g></mask></svg><rect width="320" height="360" fill="black" stroke="none" visibility="hidden"></rect></g></mask><linearGradient x1="0.054" x2="0.941" y1="0.5" y2="0.5" id="aedf4071-25af-4c6f-984e-e0cee2402480"><stop stop-color="#0f3054" offset="0"></stop><stop stop-color="#3b8dcb" offset="0.498"></stop><stop stop-color="#0f3054" offset="1"></stop></linearGradient><rect width="320.0000000000001" height="360" fill="url(#aedf4071-25af-4c6f-984e-e0cee2402480)" mask="url(#45ae011c-bb85-4659-b792-ddc194b9436a)" data-fill-palette-color="secondary"></rect><mask id="f0315c87-c441-46d1-b07f-6402b9a02abf"><g id="SvgjsG1776"><svg viewBox="0 0 320 360" height="360" width="320"><g><svg></svg></g><g><svg viewBox="0 0 320 360" height="360" width="320"><g><path d="M20.961 227.22l3.726 4.658-1.863-6.056c-0.466-2.795-3.726 0.466-1.863 1.398M25.153 224.425c1.397 2.329 2.795 4.658 2.795 6.987 0 3.261 2.795 4.658 5.123 5.589-3.261-3.726-5.124-13.974-7.918-12.576M204.017 26.929c7.918 0 15.371-0.932 23.756 0.931 20.495 5.124 37.729 15.371 49.374 29.811l32.606 52.169c1.397 13.042 4.192 27.482 3.726 43.319 3.261 0 2.795-4.658 6.521-5.59-3.726 9.316-5.59 20.961-6.521 34.469-2.329-7.453 0-18.632 0.466-24.687-3.261 5.124-5.124 1.397-5.124-0.932 0.466-3.726-1.397-3.261-2.795-4.658-5.124-4.658-8.384-9.782-12.11-17.7 2.329-6.055 2.795-14.905-4.658-19.563-2.329-1.397-5.124-3.726-6.521-7.453-1.863-5.124-5.124-11.179-4.193-19.097 0.466-2.329-6.987 5.124-11.179 1.863-18.166-12.576-36.332-27.016-58.224-39.127-11.645 0-20.029-4.192-24.221-9.316-3.726-4.658-0.932-10.713 4.658-11.179 3.261 0 6.987-0.932 9.782 0.932 0.466-1.863 2.329-4.192 4.657-4.192M157.904 16.215l0.932 0.466c4.658 0.932 6.987 7.453 12.11 5.124 0 3.261 0.466 6.521-0.466 8.85-1.397 3.726-5.59 3.726-8.85 3.726-31.208-1.863-49.374 11.179-68.471 22.358-5.124 3.261-10.713 5.59-14.906 9.782-20.029 18.632-41.921 35.866-47.045 70.335l-4.192 38.195c-0.466 4.192-5.124 8.384-4.192 13.508l3.26 22.824c-3.261-3.261-5.124 0.932-4.192 2.795 0.466 1.397 2.329 6.055 5.124 1.863 3.726 6.987 7.453 20.495 12.576 26.55 15.837 18.632 36.332 35.4 53.101 52.169 4.192-0.932 7.453-0.932 8.384-3.727 1.397 2.795-1.397 5.59-3.726 6.056 7.453 4.658 15.837 8.85 27.016 9.781 14.44 0.932 27.948 3.261 40.524 6.522 6.521-1.863 13.042-2.795 20.029-3.261 2.329 0 3.726-3.726 6.521-4.658l0.466-4.658c2.795 4.192 2.329-1.397 0.466-4.192 3.261 2.795 4.192 5.124 5.589 6.987 0-1.397 3.726-6.521 3.727-0.466l0.931-6.055c1.397-0.932 1.863 5.124 3.261 0.931 1.397-4.192 4.192-0.932 6.987-2.329-0.932 1.863-0.466 5.59 2.794 3.261l3.727-3.261c2.329 5.59 6.055 3.261 7.918 2.329 20.495-13.042 40.99-28.413 60.553-43.784l-0.466 6.055 2.329-7.453c2.329 2.329 4.192 0.466 5.124-0.931 2.795-4.658 6.521-9.316 12.577-13.508-7.453 20.029-16.303 35.866-27.482 48.908l-4.658 5.59c0 3.261-0.932 7.453-4.658 7.918-1.863 0.466-5.59-0.932-8.384 1.863-1.397 1.863 3.261 5.59-0.466 2.795-3.261-2.329-6.521 0-10.248 0.932-2.795 0.932 1.863 3.726 2.795 5.589 0.932 1.863 1.863 3.726 1.398 6.056l-5.124-5.59c-6.055 3.261-9.782 9.316-14.906 13.974-2.329 1.863-1.397 5.124-1.397 7.918-3.261 0-6.987-0.932-8.85 0.932-1.397 1.863-0.932 4.658-0.932 7.453-4.658-0.466-5.124-7.453-9.315-6.056-4.192 0.932-8.85 1.397-12.577 3.727 2.795 5.59-4.658 2.329-3.726 3.26-6.987-4.192-13.042-7.453-20.495-4.658-15.837-5.124-35.4-2.795-49.84-0.931 0-2.329 0.466-4.658-0.466-5.124-0.932 2.329-3.726 1.397-3.26 1.397-8.85-6.055-17.7-9.782-27.016-14.905-8.384 0.932-16.303-3.261-18.632-5.59-6.521-6.055-13.974-2.795-20.029-4.192-13.042-3.261-17.7-16.769-19.098-26.084-0.932-4.658-4.658-6.521-6.055-6.056-6.055-19.563-15.371-37.263-22.824-55.429-1.863-4.658-1.397-9.316-1.397-14.44 2.329 0.932 4.658 0.466 4.192-2.794-2.329-15.371-7.918-27.016-13.974-38.195 3.261-15.837 3.726-34.469 11.179-48.443 6.521-12.576 18.632-19.098 27.016-29.811 2.795-3.726 2.795-8.85 5.59-12.11 9.316-9.316 18.632-19.098 28.879-27.482 4.658-3.726 10.247 0 17.234-1.397 2.329-8.384 11.645-15.837 20.495-13.508 3.726 0.932 11.179-8.85 13.508-9.782 3.726-1.397 1.863 3.726 1.863 6.987 8.85-6.987 20.961-10.713 32.14-14.906" fill="white" fill-rule="nonzero" stroke="none" stroke-width="1" stroke-linecap="butt" stroke-linejoin="miter" stroke-miterlimit="10" stroke-dasharray="" stroke-dashoffset="0" font-family="none" font-weight="none" font-size="none" text-anchor="none" style="mix-blend-mode: normal"></path></g><g transform="matrix(1,0,0,1,64,144.72290701601605)"><svg viewBox="0 0 192 70.55418596796788" height="70.55418596796788" width="192"><g><svg viewBox="0 0 192 70.55418596796788" height="70.55418596796788" width="192"><g><svg viewBox="0 0 192 70.55418596796788" height="70.55418596796788" width="192"><g id="SvgjsG1775"><svg viewBox="0 0 192 70.55418596796788" height="70.55418596796788" width="192" id="SvgjsSvg1774"><g><svg viewBox="0 0 192 45.98084131611828" height="45.98084131611828" width="192"><g transform="matrix(1,0,0,1,0,0)"><svg width="192" viewBox="4 -28.75 120.05 28.75" height="45.98084131611828" data-palette-color="url(#6241b2e6-54ea-4630-8ecb-d88d1cc4f169)"></svg></g></svg></g><g transform="matrix(1,0,0,1,0,52.69054960433152)"><svg viewBox="0 0 192 17.863636363636363" height="17.863636363636363" width="192"><g transform="matrix(1,0,0,1,0,0)"><svg width="192" viewBox="-12.5 -32 351.98 32.75" height="17.863636363636363" data-palette-color="url(#aedf4071-25af-4c6f-984e-e0cee2402480)"></svg></g></svg></g></svg></g></svg></g><g></g></svg></g></svg></g></svg></g><defs><mask></mask></defs><mask><g id="SvgjsG1773"><svg viewBox="0 0 320 360" height="360" width="320"><g><svg></svg></g><g><svg viewBox="0 0 320 360" height="360" width="320"><g><path d="M20.961 227.22l3.726 4.658-1.863-6.056c-0.466-2.795-3.726 0.466-1.863 1.398M25.153 224.425c1.397 2.329 2.795 4.658 2.795 6.987 0 3.261 2.795 4.658 5.123 5.589-3.261-3.726-5.124-13.974-7.918-12.576M204.017 26.929c7.918 0 15.371-0.932 23.756 0.931 20.495 5.124 37.729 15.371 49.374 29.811l32.606 52.169c1.397 13.042 4.192 27.482 3.726 43.319 3.261 0 2.795-4.658 6.521-5.59-3.726 9.316-5.59 20.961-6.521 34.469-2.329-7.453 0-18.632 0.466-24.687-3.261 5.124-5.124 1.397-5.124-0.932 0.466-3.726-1.397-3.261-2.795-4.658-5.124-4.658-8.384-9.782-12.11-17.7 2.329-6.055 2.795-14.905-4.658-19.563-2.329-1.397-5.124-3.726-6.521-7.453-1.863-5.124-5.124-11.179-4.193-19.097 0.466-2.329-6.987 5.124-11.179 1.863-18.166-12.576-36.332-27.016-58.224-39.127-11.645 0-20.029-4.192-24.221-9.316-3.726-4.658-0.932-10.713 4.658-11.179 3.261 0 6.987-0.932 9.782 0.932 0.466-1.863 2.329-4.192 4.657-4.192M157.904 16.215l0.932 0.466c4.658 0.932 6.987 7.453 12.11 5.124 0 3.261 0.466 6.521-0.466 8.85-1.397 3.726-5.59 3.726-8.85 3.726-31.208-1.863-49.374 11.179-68.471 22.358-5.124 3.261-10.713 5.59-14.906 9.782-20.029 18.632-41.921 35.866-47.045 70.335l-4.192 38.195c-0.466 4.192-5.124 8.384-4.192 13.508l3.26 22.824c-3.261-3.261-5.124 0.932-4.192 2.795 0.466 1.397 2.329 6.055 5.124 1.863 3.726 6.987 7.453 20.495 12.576 26.55 15.837 18.632 36.332 35.4 53.101 52.169 4.192-0.932 7.453-0.932 8.384-3.727 1.397 2.795-1.397 5.59-3.726 6.056 7.453 4.658 15.837 8.85 27.016 9.781 14.44 0.932 27.948 3.261 40.524 6.522 6.521-1.863 13.042-2.795 20.029-3.261 2.329 0 3.726-3.726 6.521-4.658l0.466-4.658c2.795 4.192 2.329-1.397 0.466-4.192 3.261 2.795 4.192 5.124 5.589 6.987 0-1.397 3.726-6.521 3.727-0.466l0.931-6.055c1.397-0.932 1.863 5.124 3.261 0.931 1.397-4.192 4.192-0.932 6.987-2.329-0.932 1.863-0.466 5.59 2.794 3.261l3.727-3.261c2.329 5.59 6.055 3.261 7.918 2.329 20.495-13.042 40.99-28.413 60.553-43.784l-0.466 6.055 2.329-7.453c2.329 2.329 4.192 0.466 5.124-0.931 2.795-4.658 6.521-9.316 12.577-13.508-7.453 20.029-16.303 35.866-27.482 48.908l-4.658 5.59c0 3.261-0.932 7.453-4.658 7.918-1.863 0.466-5.59-0.932-8.384 1.863-1.397 1.863 3.261 5.59-0.466 2.795-3.261-2.329-6.521 0-10.248 0.932-2.795 0.932 1.863 3.726 2.795 5.589 0.932 1.863 1.863 3.726 1.398 6.056l-5.124-5.59c-6.055 3.261-9.782 9.316-14.906 13.974-2.329 1.863-1.397 5.124-1.397 7.918-3.261 0-6.987-0.932-8.85 0.932-1.397 1.863-0.932 4.658-0.932 7.453-4.658-0.466-5.124-7.453-9.315-6.056-4.192 0.932-8.85 1.397-12.577 3.727 2.795 5.59-4.658 2.329-3.726 3.26-6.987-4.192-13.042-7.453-20.495-4.658-15.837-5.124-35.4-2.795-49.84-0.931 0-2.329 0.466-4.658-0.466-5.124-0.932 2.329-3.726 1.397-3.26 1.397-8.85-6.055-17.7-9.782-27.016-14.905-8.384 0.932-16.303-3.261-18.632-5.59-6.521-6.055-13.974-2.795-20.029-4.192-13.042-3.261-17.7-16.769-19.098-26.084-0.932-4.658-4.658-6.521-6.055-6.056-6.055-19.563-15.371-37.263-22.824-55.429-1.863-4.658-1.397-9.316-1.397-14.44 2.329 0.932 4.658 0.466 4.192-2.794-2.329-15.371-7.918-27.016-13.974-38.195 3.261-15.837 3.726-34.469 11.179-48.443 6.521-12.576 18.632-19.098 27.016-29.811 2.795-3.726 2.795-8.85 5.59-12.11 9.316-9.316 18.632-19.098 28.879-27.482 4.658-3.726 10.247 0 17.234-1.397 2.329-8.384 11.645-15.837 20.495-13.508 3.726 0.932 11.179-8.85 13.508-9.782 3.726-1.397 1.863 3.726 1.863 6.987 8.85-6.987 20.961-10.713 32.14-14.906" fill="black" fill-rule="nonzero" stroke="none" stroke-width="1" stroke-linecap="butt" stroke-linejoin="miter" stroke-miterlimit="10" stroke-dasharray="" stroke-dashoffset="0" font-family="none" font-weight="none" font-size="none" text-anchor="none" style="mix-blend-mode: normal"></path></g><g transform="matrix(1,0,0,1,64,144.72290701601605)"><svg viewBox="0 0 192 70.55418596796788" height="70.55418596796788" width="192"><g><svg viewBox="0 0 192 70.55418596796788" height="70.55418596796788" width="192"><g><svg viewBox="0 0 192 70.55418596796788" height="70.55418596796788" width="192"><g id="SvgjsG1772"><svg viewBox="0 0 192 70.55418596796788" height="70.55418596796788" width="192" id="SvgjsSvg1771"><g><svg viewBox="0 0 192 45.98084131611828" height="45.98084131611828" width="192"><g transform="matrix(1,0,0,1,0,0)"><svg width="192" viewBox="4 -28.75 120.05 28.75" height="45.98084131611828" data-palette-color="url(#6241b2e6-54ea-4630-8ecb-d88d1cc4f169)"><path d="M4-3.4L4-25.3 9.85-28.75 20.2-28.75 20.2-22.85 10.5-22.85 10.5-5.65 20-5.65 20 0 9.85 0 4-3.4ZM32.15-19.45L38.65-19.45 38.65-25.3 32.8-28.75 22.45-28.75 22.45-22.85 32.15-22.85 32.15-19.45ZM38.65-3.4L38.65-17.2 22.45-17.2 22.45-11.5 32.15-11.5 32.15-5.65 22.65-5.65 22.65 0 32.8 0 38.65-3.4ZM47.65 0L47.65-28.75 63.65-28.75 63.65-23.1 53.95-23.1 53.95-17.2 63.65-17.2 63.65-11.5 53.95-11.5 53.95-5.85 63.65-5.85 63.65 0 47.65 0ZM76.45 0L82.1-3.4 82.1-12.15 77.4-14.35 82.1-16.6 82.1-25.3 76.45-28.75 66.1-28.75 66.1-23.1 75.8-23.1 75.8-17.2 66.1-17.2 66.1-11.5 75.8-11.5 75.8-5.85 66.1-5.85 66.1 0 76.45 0ZM89.6-14.75L89.6-25.3 95.3-28.75 105.6-28.75 105.6-22.85 95.7-22.85 95.7-17.2 105.6-17.2 105.6-11.35 95.3-11.35 89.6-14.75ZM124.05-3.4L124.05-13.75 118.15-17.2 107.85-17.2 107.85-11.35 117.75-11.35 117.75-5.65 108.05-5.65 108.05 0 118.15 0 124.05-3.4ZM89.6-9.1L95.9-9.1 95.9-5.65 105.6-5.65 105.6 0 95.45 0 89.6-3.4 89.6-9.1ZM117.75-19.45L124.05-19.45 124.05-25.3 118.15-28.75 107.85-28.75 107.85-22.85 117.75-22.85 117.75-19.45Z" opacity="1" transform="matrix(1,0,0,1,0,0)" fill="black" class="wordmark-text-0" id="SvgjsPath1770"></path></svg></g></svg></g><g transform="matrix(1,0,0,1,0,52.69054960433152)"><svg viewBox="0 0 192 17.863636363636363" height="17.863636363636363" width="192"><g transform="matrix(1,0,0,1,0,0)"><svg width="192" viewBox="-12.5 -32 351.98 32.75" height="17.863636363636363" data-palette-color="url(#aedf4071-25af-4c6f-984e-e0cee2402480)"><path d="M19.7 0L10.2 0 15.7-31.25 24.65-31.25 29.75-20.15Q29.9-19.8 29.9-19.15L29.9-19.15Q29.9-18.8 29.88-18.43 29.85-18.05 29.8-17.75L29.8-17.75 30.2-17.75 32.6-31.25 42.1-31.25 36.6 0 27.65 0 22.55-11.1Q22.5-11.3 22.43-11.58 22.35-11.85 22.35-12.2L22.35-12.2Q22.35-12.5 22.38-12.85 22.4-13.2 22.45-13.5L22.45-13.5 22.05-13.5 19.7 0ZM14.15-31.25L13.75-29-7.4-31.25 14.15-31.25ZM13.3-26.45L12.95-24.2-8.25-26.45 13.3-26.45ZM12.5-21.65L12.1-19.4-9.1-21.65 12.5-21.65ZM11.65-16.85L11.25-14.6-9.95-16.85 11.65-16.85ZM10.8-12.05L10.4-9.8-10.8-12.05 10.8-12.05ZM9.95-7.25L9.55-5-11.65-7.25 9.95-7.25ZM9.1-2.4L8.7-0.15-12.5-2.4 9.1-2.4ZM64.65 0.75L64.65 0.75Q58.15 0.75 55.52-1.8 52.9-4.35 52.9-9.35L52.9-9.35Q52.9-10.75 53.07-12.3 53.25-13.85 53.55-15.6L53.55-15.6Q54.5-21.05 56.35-24.68 58.2-28.3 61.55-30.15 64.9-32 70.4-32L70.4-32Q76.9-32 79.52-29.48 82.15-26.95 82.15-21.9L82.15-21.9Q82.15-19.85 81.82-17.2 81.5-14.55 80.72-11.8 79.95-9.05 78.65-6.6 77.35-4.15 75.4-2.4L75.4-2.4Q73.4-0.65 70.75 0.05 68.1 0.75 64.65 0.75ZM58.05-29.6L58.05-29.6 42.75-31.25 60.3-31.25Q59.7-30.9 59.15-30.5 58.6-30.1 58.05-29.6ZM54.55-24.45L54.55-24.45 35.85-26.45 55.55-26.45Q55.3-25.95 55.05-25.48 54.8-25 54.55-24.45ZM64.65-20.8L62.35-7.8 66.3-7.8Q67.95-7.8 69.02-8.2 70.1-8.6 70.45-10.45L70.45-10.45 72.75-23.45 68.75-23.45Q67.1-23.45 66.05-23.05 65-22.65 64.65-20.8L64.65-20.8ZM53.5-21.65L52.9-19.6 33.5-21.65 53.5-21.65ZM51.95-14.75L51.95-14.75 32.3-16.85 52.3-16.85 52.15-15.85Q52.1-15.55 52.05-15.28 52-15 51.95-14.75ZM51.45-9.95L51.45-9.95 31.75-12.05 51.6-12.05Q51.45-10.95 51.45-9.95ZM51.85-5.15L51.85-5.15 32.4-7.25 51.5-7.25Q51.6-6.7 51.67-6.18 51.75-5.65 51.85-5.15ZM54.5-0.55L54.5-0.55 37.2-2.4 53-2.4Q53.65-1.25 54.5-0.55ZM122.49 0L103.49 0 108.99-31.25 118.49-31.25 114.39-8 123.89-8 122.49 0ZM107.44-31.25L107.04-29 85.89-31.25 107.44-31.25ZM106.59-26.45L106.24-24.2 85.04-26.45 106.59-26.45ZM105.79-21.65L105.39-19.4 84.19-21.65 105.79-21.65ZM104.94-16.85L104.54-14.6 83.34-16.85 104.94-16.85ZM104.09-12.05L103.69-9.8 82.49-12.05 104.09-12.05ZM103.24-7.25L102.84-5 81.64-7.25 103.24-7.25ZM102.39-2.4L101.99-0.15 80.79-2.4 102.39-2.4ZM144.09 0L134.59 0 140.09-31.25 149.59-31.25 144.09 0ZM138.54-31.25L138.14-29 116.99-31.25 138.54-31.25ZM137.69-26.45L137.34-24.2 116.14-26.45 137.69-26.45ZM136.89-21.65L136.49-19.4 115.29-21.65 136.89-21.65ZM136.04-16.85L135.64-14.6 114.44-16.85 136.04-16.85ZM135.19-12.05L134.79-9.8 113.59-12.05 135.19-12.05ZM134.34-7.25L133.94-5 112.74-7.25 134.34-7.25ZM133.49-2.4L133.09-0.15 111.89-2.4 133.49-2.4ZM169.59 0L159.69 0 166.99-31.25 179.39-31.25 180.29-15.35 180.64-15.35 187.14-31.25 199.54-31.25 195.84 0 185.89 0 187.99-15.15 187.64-15.15 181.39 0 174.14 0 173.09-15.15 172.84-15.15 169.59 0ZM165.44-31.25L164.94-29 143.99-31.25 165.44-31.25ZM164.34-26.45L163.79-24.2 142.84-26.45 164.34-26.45ZM163.19-21.65L162.69-19.4 141.69-21.65 163.19-21.65ZM162.09-16.85L161.54-14.6 140.54-16.85 162.09-16.85ZM160.94-12.05L160.44-9.8 139.39-12.05 160.94-12.05ZM159.84-7.25L159.29-5 138.24-7.25 159.84-7.25ZM158.69-2.4L158.19-0.15 137.09-2.4 158.69-2.4ZM220.44 0L210.94 0 216.44-31.25 225.94-31.25 220.44 0ZM214.89-31.25L214.49-29 193.34-31.25 214.89-31.25ZM214.04-26.45L213.69-24.2 192.49-26.45 214.04-26.45ZM213.24-21.65L212.84-19.4 191.64-21.65 213.24-21.65ZM212.39-16.85L211.99-14.6 190.79-16.85 212.39-16.85ZM211.54-12.05L211.14-9.8 189.94-12.05 211.54-12.05ZM210.69-7.25L210.29-5 189.09-7.25 210.69-7.25ZM209.84-2.4L209.44-0.15 188.24-2.4 209.84-2.4ZM251.78 0L242.28 0 246.33-23.25 239.48-23.25 240.93-31.25 264.18-31.25 262.73-23.25 255.83-23.25 251.78 0ZM239.33-31.25L238.93-29 217.78-31.25 239.33-31.25ZM238.48-26.45L238.13-24.2 216.93-26.45 238.48-26.45ZM244.53-21.65L244.13-19.4 222.93-21.65 244.53-21.65ZM243.68-16.85L243.28-14.6 222.08-16.85 243.68-16.85ZM242.83-12.05L242.43-9.8 221.23-12.05 242.83-12.05ZM241.98-7.25L241.58-5 220.38-7.25 241.98-7.25ZM241.13-2.4L240.73-0.15 219.53-2.4 241.13-2.4ZM293.63 0L272.48 0 277.98-31.25 298.88-31.25 296.28-23.25 286.03-23.25 285.33-19.05 294.83-19.05 293.53-11.8 284.03-11.8 283.38-8 295.03-8 293.63 0ZM276.43-31.25L276.03-29 254.88-31.25 276.43-31.25ZM275.58-26.45L275.23-24.2 254.03-26.45 275.58-26.45ZM274.78-21.65L274.38-19.4 253.18-21.65 274.78-21.65ZM273.93-16.85L273.53-14.6 252.33-16.85 273.93-16.85ZM273.08-12.05L272.68-9.8 251.48-12.05 273.08-12.05ZM272.23-7.25L271.83-5 250.63-7.25 272.23-7.25ZM271.38-2.4L270.98-0.15 249.78-2.4 271.38-2.4ZM322.08 0L308.78 0 314.28-31.25 327.58-31.25Q334.13-31.25 336.8-28.93 339.48-26.6 339.48-21.6L339.48-21.6Q339.48-19 338.88-15.6L338.88-15.6Q337.93-10.2 336.1-6.75 334.28-3.3 330.95-1.65 327.63 0 322.08 0L322.08 0ZM312.73-31.25L312.33-29 291.18-31.25 312.73-31.25ZM311.88-26.45L311.53-24.2 290.33-26.45 311.88-26.45ZM322.33-23.25L319.68-8 323.63-8Q325.28-8 326.35-8.4 327.43-8.8 327.78-10.65L327.78-10.65 329.53-20.6Q329.58-20.85 329.58-21.03 329.58-21.2 329.58-21.4L329.58-21.4Q329.58-22.7 328.65-22.98 327.73-23.25 326.28-23.25L326.28-23.25 322.33-23.25ZM311.08-21.65L310.68-19.4 289.48-21.65 311.08-21.65ZM310.23-16.85L309.83-14.6 288.63-16.85 310.23-16.85ZM309.38-12.05L308.98-9.8 287.78-12.05 309.38-12.05ZM308.53-7.25L308.13-5 286.93-7.25 308.53-7.25ZM307.68-2.4L307.28-0.15 286.08-2.4 307.68-2.4Z" opacity="1" transform="matrix(1,0,0,1,0,0)" fill="black" class="slogan-text-1" id="SvgjsPath1769"></path></svg></g></svg></g></svg></g></svg></g><g></g></svg></g></svg></g></svg></g><defs><mask></mask></defs></svg><rect width="320" height="360" fill="black" stroke="none" visibility="hidden"></rect></g></mask><mask><g id="SvgjsG1768"><svg viewBox="0 0 320 360" height="360" width="320"><g><svg></svg></g><g><svg viewBox="0 0 320 360" height="360" width="320"><g><path d="M20.961 227.22l3.726 4.658-1.863-6.056c-0.466-2.795-3.726 0.466-1.863 1.398M25.153 224.425c1.397 2.329 2.795 4.658 2.795 6.987 0 3.261 2.795 4.658 5.123 5.589-3.261-3.726-5.124-13.974-7.918-12.576M204.017 26.929c7.918 0 15.371-0.932 23.756 0.931 20.495 5.124 37.729 15.371 49.374 29.811l32.606 52.169c1.397 13.042 4.192 27.482 3.726 43.319 3.261 0 2.795-4.658 6.521-5.59-3.726 9.316-5.59 20.961-6.521 34.469-2.329-7.453 0-18.632 0.466-24.687-3.261 5.124-5.124 1.397-5.124-0.932 0.466-3.726-1.397-3.261-2.795-4.658-5.124-4.658-8.384-9.782-12.11-17.7 2.329-6.055 2.795-14.905-4.658-19.563-2.329-1.397-5.124-3.726-6.521-7.453-1.863-5.124-5.124-11.179-4.193-19.097 0.466-2.329-6.987 5.124-11.179 1.863-18.166-12.576-36.332-27.016-58.224-39.127-11.645 0-20.029-4.192-24.221-9.316-3.726-4.658-0.932-10.713 4.658-11.179 3.261 0 6.987-0.932 9.782 0.932 0.466-1.863 2.329-4.192 4.657-4.192M157.904 16.215l0.932 0.466c4.658 0.932 6.987 7.453 12.11 5.124 0 3.261 0.466 6.521-0.466 8.85-1.397 3.726-5.59 3.726-8.85 3.726-31.208-1.863-49.374 11.179-68.471 22.358-5.124 3.261-10.713 5.59-14.906 9.782-20.029 18.632-41.921 35.866-47.045 70.335l-4.192 38.195c-0.466 4.192-5.124 8.384-4.192 13.508l3.26 22.824c-3.261-3.261-5.124 0.932-4.192 2.795 0.466 1.397 2.329 6.055 5.124 1.863 3.726 6.987 7.453 20.495 12.576 26.55 15.837 18.632 36.332 35.4 53.101 52.169 4.192-0.932 7.453-0.932 8.384-3.727 1.397 2.795-1.397 5.59-3.726 6.056 7.453 4.658 15.837 8.85 27.016 9.781 14.44 0.932 27.948 3.261 40.524 6.522 6.521-1.863 13.042-2.795 20.029-3.261 2.329 0 3.726-3.726 6.521-4.658l0.466-4.658c2.795 4.192 2.329-1.397 0.466-4.192 3.261 2.795 4.192 5.124 5.589 6.987 0-1.397 3.726-6.521 3.727-0.466l0.931-6.055c1.397-0.932 1.863 5.124 3.261 0.931 1.397-4.192 4.192-0.932 6.987-2.329-0.932 1.863-0.466 5.59 2.794 3.261l3.727-3.261c2.329 5.59 6.055 3.261 7.918 2.329 20.495-13.042 40.99-28.413 60.553-43.784l-0.466 6.055 2.329-7.453c2.329 2.329 4.192 0.466 5.124-0.931 2.795-4.658 6.521-9.316 12.577-13.508-7.453 20.029-16.303 35.866-27.482 48.908l-4.658 5.59c0 3.261-0.932 7.453-4.658 7.918-1.863 0.466-5.59-0.932-8.384 1.863-1.397 1.863 3.261 5.59-0.466 2.795-3.261-2.329-6.521 0-10.248 0.932-2.795 0.932 1.863 3.726 2.795 5.589 0.932 1.863 1.863 3.726 1.398 6.056l-5.124-5.59c-6.055 3.261-9.782 9.316-14.906 13.974-2.329 1.863-1.397 5.124-1.397 7.918-3.261 0-6.987-0.932-8.85 0.932-1.397 1.863-0.932 4.658-0.932 7.453-4.658-0.466-5.124-7.453-9.315-6.056-4.192 0.932-8.85 1.397-12.577 3.727 2.795 5.59-4.658 2.329-3.726 3.26-6.987-4.192-13.042-7.453-20.495-4.658-15.837-5.124-35.4-2.795-49.84-0.931 0-2.329 0.466-4.658-0.466-5.124-0.932 2.329-3.726 1.397-3.26 1.397-8.85-6.055-17.7-9.782-27.016-14.905-8.384 0.932-16.303-3.261-18.632-5.59-6.521-6.055-13.974-2.795-20.029-4.192-13.042-3.261-17.7-16.769-19.098-26.084-0.932-4.658-4.658-6.521-6.055-6.056-6.055-19.563-15.371-37.263-22.824-55.429-1.863-4.658-1.397-9.316-1.397-14.44 2.329 0.932 4.658 0.466 4.192-2.794-2.329-15.371-7.918-27.016-13.974-38.195 3.261-15.837 3.726-34.469 11.179-48.443 6.521-12.576 18.632-19.098 27.016-29.811 2.795-3.726 2.795-8.85 5.59-12.11 9.316-9.316 18.632-19.098 28.879-27.482 4.658-3.726 10.247 0 17.234-1.397 2.329-8.384 11.645-15.837 20.495-13.508 3.726 0.932 11.179-8.85 13.508-9.782 3.726-1.397 1.863 3.726 1.863 6.987 8.85-6.987 20.961-10.713 32.14-14.906" fill="black" fill-rule="nonzero" stroke="none" stroke-width="1" stroke-linecap="butt" stroke-linejoin="miter" stroke-miterlimit="10" stroke-dasharray="" stroke-dashoffset="0" font-family="none" font-weight="none" font-size="none" text-anchor="none" style="mix-blend-mode: normal"></path></g><g transform="matrix(1,0,0,1,64,144.72290701601605)"><svg viewBox="0 0 192 70.55418596796788" height="70.55418596796788" width="192"><g><svg viewBox="0 0 192 70.55418596796788" height="70.55418596796788" width="192"><g><svg viewBox="0 0 192 70.55418596796788" height="70.55418596796788" width="192"><g id="SvgjsG1767"><svg viewBox="0 0 192 70.55418596796788" height="70.55418596796788" width="192" id="SvgjsSvg1766"><g><svg viewBox="0 0 192 45.98084131611828" height="45.98084131611828" width="192"><g transform="matrix(1,0,0,1,0,0)"><svg width="192" viewBox="4 -28.75 120.05 28.75" height="45.98084131611828" data-palette-color="url(#6241b2e6-54ea-4630-8ecb-d88d1cc4f169)"></svg></g></svg></g><g transform="matrix(1,0,0,1,0,52.69054960433152)"><svg viewBox="0 0 192 17.863636363636363" height="17.863636363636363" width="192"><g transform="matrix(1,0,0,1,0,0)"><svg width="192" viewBox="-12.5 -32 351.98 32.75" height="17.863636363636363" data-palette-color="url(#aedf4071-25af-4c6f-984e-e0cee2402480)"><path d="M19.7 0L10.2 0 15.7-31.25 24.65-31.25 29.75-20.15Q29.9-19.8 29.9-19.15L29.9-19.15Q29.9-18.8 29.88-18.43 29.85-18.05 29.8-17.75L29.8-17.75 30.2-17.75 32.6-31.25 42.1-31.25 36.6 0 27.65 0 22.55-11.1Q22.5-11.3 22.43-11.58 22.35-11.85 22.35-12.2L22.35-12.2Q22.35-12.5 22.38-12.85 22.4-13.2 22.45-13.5L22.45-13.5 22.05-13.5 19.7 0ZM14.15-31.25L13.75-29-7.4-31.25 14.15-31.25ZM13.3-26.45L12.95-24.2-8.25-26.45 13.3-26.45ZM12.5-21.65L12.1-19.4-9.1-21.65 12.5-21.65ZM11.65-16.85L11.25-14.6-9.95-16.85 11.65-16.85ZM10.8-12.05L10.4-9.8-10.8-12.05 10.8-12.05ZM9.95-7.25L9.55-5-11.65-7.25 9.95-7.25ZM9.1-2.4L8.7-0.15-12.5-2.4 9.1-2.4ZM64.65 0.75L64.65 0.75Q58.15 0.75 55.52-1.8 52.9-4.35 52.9-9.35L52.9-9.35Q52.9-10.75 53.07-12.3 53.25-13.85 53.55-15.6L53.55-15.6Q54.5-21.05 56.35-24.68 58.2-28.3 61.55-30.15 64.9-32 70.4-32L70.4-32Q76.9-32 79.52-29.48 82.15-26.95 82.15-21.9L82.15-21.9Q82.15-19.85 81.82-17.2 81.5-14.55 80.72-11.8 79.95-9.05 78.65-6.6 77.35-4.15 75.4-2.4L75.4-2.4Q73.4-0.65 70.75 0.05 68.1 0.75 64.65 0.75ZM58.05-29.6L58.05-29.6 42.75-31.25 60.3-31.25Q59.7-30.9 59.15-30.5 58.6-30.1 58.05-29.6ZM54.55-24.45L54.55-24.45 35.85-26.45 55.55-26.45Q55.3-25.95 55.05-25.48 54.8-25 54.55-24.45ZM64.65-20.8L62.35-7.8 66.3-7.8Q67.95-7.8 69.02-8.2 70.1-8.6 70.45-10.45L70.45-10.45 72.75-23.45 68.75-23.45Q67.1-23.45 66.05-23.05 65-22.65 64.65-20.8L64.65-20.8ZM53.5-21.65L52.9-19.6 33.5-21.65 53.5-21.65ZM51.95-14.75L51.95-14.75 32.3-16.85 52.3-16.85 52.15-15.85Q52.1-15.55 52.05-15.28 52-15 51.95-14.75ZM51.45-9.95L51.45-9.95 31.75-12.05 51.6-12.05Q51.45-10.95 51.45-9.95ZM51.85-5.15L51.85-5.15 32.4-7.25 51.5-7.25Q51.6-6.7 51.67-6.18 51.75-5.65 51.85-5.15ZM54.5-0.55L54.5-0.55 37.2-2.4 53-2.4Q53.65-1.25 54.5-0.55ZM122.49 0L103.49 0 108.99-31.25 118.49-31.25 114.39-8 123.89-8 122.49 0ZM107.44-31.25L107.04-29 85.89-31.25 107.44-31.25ZM106.59-26.45L106.24-24.2 85.04-26.45 106.59-26.45ZM105.79-21.65L105.39-19.4 84.19-21.65 105.79-21.65ZM104.94-16.85L104.54-14.6 83.34-16.85 104.94-16.85ZM104.09-12.05L103.69-9.8 82.49-12.05 104.09-12.05ZM103.24-7.25L102.84-5 81.64-7.25 103.24-7.25ZM102.39-2.4L101.99-0.15 80.79-2.4 102.39-2.4ZM144.09 0L134.59 0 140.09-31.25 149.59-31.25 144.09 0ZM138.54-31.25L138.14-29 116.99-31.25 138.54-31.25ZM137.69-26.45L137.34-24.2 116.14-26.45 137.69-26.45ZM136.89-21.65L136.49-19.4 115.29-21.65 136.89-21.65ZM136.04-16.85L135.64-14.6 114.44-16.85 136.04-16.85ZM135.19-12.05L134.79-9.8 113.59-12.05 135.19-12.05ZM134.34-7.25L133.94-5 112.74-7.25 134.34-7.25ZM133.49-2.4L133.09-0.15 111.89-2.4 133.49-2.4ZM169.59 0L159.69 0 166.99-31.25 179.39-31.25 180.29-15.35 180.64-15.35 187.14-31.25 199.54-31.25 195.84 0 185.89 0 187.99-15.15 187.64-15.15 181.39 0 174.14 0 173.09-15.15 172.84-15.15 169.59 0ZM165.44-31.25L164.94-29 143.99-31.25 165.44-31.25ZM164.34-26.45L163.79-24.2 142.84-26.45 164.34-26.45ZM163.19-21.65L162.69-19.4 141.69-21.65 163.19-21.65ZM162.09-16.85L161.54-14.6 140.54-16.85 162.09-16.85ZM160.94-12.05L160.44-9.8 139.39-12.05 160.94-12.05ZM159.84-7.25L159.29-5 138.24-7.25 159.84-7.25ZM158.69-2.4L158.19-0.15 137.09-2.4 158.69-2.4ZM220.44 0L210.94 0 216.44-31.25 225.94-31.25 220.44 0ZM214.89-31.25L214.49-29 193.34-31.25 214.89-31.25ZM214.04-26.45L213.69-24.2 192.49-26.45 214.04-26.45ZM213.24-21.65L212.84-19.4 191.64-21.65 213.24-21.65ZM212.39-16.85L211.99-14.6 190.79-16.85 212.39-16.85ZM211.54-12.05L211.14-9.8 189.94-12.05 211.54-12.05ZM210.69-7.25L210.29-5 189.09-7.25 210.69-7.25ZM209.84-2.4L209.44-0.15 188.24-2.4 209.84-2.4ZM251.78 0L242.28 0 246.33-23.25 239.48-23.25 240.93-31.25 264.18-31.25 262.73-23.25 255.83-23.25 251.78 0ZM239.33-31.25L238.93-29 217.78-31.25 239.33-31.25ZM238.48-26.45L238.13-24.2 216.93-26.45 238.48-26.45ZM244.53-21.65L244.13-19.4 222.93-21.65 244.53-21.65ZM243.68-16.85L243.28-14.6 222.08-16.85 243.68-16.85ZM242.83-12.05L242.43-9.8 221.23-12.05 242.83-12.05ZM241.98-7.25L241.58-5 220.38-7.25 241.98-7.25ZM241.13-2.4L240.73-0.15 219.53-2.4 241.13-2.4ZM293.63 0L272.48 0 277.98-31.25 298.88-31.25 296.28-23.25 286.03-23.25 285.33-19.05 294.83-19.05 293.53-11.8 284.03-11.8 283.38-8 295.03-8 293.63 0ZM276.43-31.25L276.03-29 254.88-31.25 276.43-31.25ZM275.58-26.45L275.23-24.2 254.03-26.45 275.58-26.45ZM274.78-21.65L274.38-19.4 253.18-21.65 274.78-21.65ZM273.93-16.85L273.53-14.6 252.33-16.85 273.93-16.85ZM273.08-12.05L272.68-9.8 251.48-12.05 273.08-12.05ZM272.23-7.25L271.83-5 250.63-7.25 272.23-7.25ZM271.38-2.4L270.98-0.15 249.78-2.4 271.38-2.4ZM322.08 0L308.78 0 314.28-31.25 327.58-31.25Q334.13-31.25 336.8-28.93 339.48-26.6 339.48-21.6L339.48-21.6Q339.48-19 338.88-15.6L338.88-15.6Q337.93-10.2 336.1-6.75 334.28-3.3 330.95-1.65 327.63 0 322.08 0L322.08 0ZM312.73-31.25L312.33-29 291.18-31.25 312.73-31.25ZM311.88-26.45L311.53-24.2 290.33-26.45 311.88-26.45ZM322.33-23.25L319.68-8 323.63-8Q325.28-8 326.35-8.4 327.43-8.8 327.78-10.65L327.78-10.65 329.53-20.6Q329.58-20.85 329.58-21.03 329.58-21.2 329.58-21.4L329.58-21.4Q329.58-22.7 328.65-22.98 327.73-23.25 326.28-23.25L326.28-23.25 322.33-23.25ZM311.08-21.65L310.68-19.4 289.48-21.65 311.08-21.65ZM310.23-16.85L309.83-14.6 288.63-16.85 310.23-16.85ZM309.38-12.05L308.98-9.8 287.78-12.05 309.38-12.05ZM308.53-7.25L308.13-5 286.93-7.25 308.53-7.25ZM307.68-2.4L307.28-0.15 286.08-2.4 307.68-2.4Z" opacity="1" transform="matrix(1,0,0,1,0,0)" fill="black" class="slogan-text-1" id="SvgjsPath1765"></path></svg></g></svg></g></svg></g></svg></g><g></g></svg></g></svg></g></svg></g><defs><mask></mask></defs><mask><g id="SvgjsG1764"><svg viewBox="0 0 320 360" height="360" width="320"><g><svg></svg></g><g><svg viewBox="0 0 320 360" height="360" width="320"><g><path d="M20.961 227.22l3.726 4.658-1.863-6.056c-0.466-2.795-3.726 0.466-1.863 1.398M25.153 224.425c1.397 2.329 2.795 4.658 2.795 6.987 0 3.261 2.795 4.658 5.123 5.589-3.261-3.726-5.124-13.974-7.918-12.576M204.017 26.929c7.918 0 15.371-0.932 23.756 0.931 20.495 5.124 37.729 15.371 49.374 29.811l32.606 52.169c1.397 13.042 4.192 27.482 3.726 43.319 3.261 0 2.795-4.658 6.521-5.59-3.726 9.316-5.59 20.961-6.521 34.469-2.329-7.453 0-18.632 0.466-24.687-3.261 5.124-5.124 1.397-5.124-0.932 0.466-3.726-1.397-3.261-2.795-4.658-5.124-4.658-8.384-9.782-12.11-17.7 2.329-6.055 2.795-14.905-4.658-19.563-2.329-1.397-5.124-3.726-6.521-7.453-1.863-5.124-5.124-11.179-4.193-19.097 0.466-2.329-6.987 5.124-11.179 1.863-18.166-12.576-36.332-27.016-58.224-39.127-11.645 0-20.029-4.192-24.221-9.316-3.726-4.658-0.932-10.713 4.658-11.179 3.261 0 6.987-0.932 9.782 0.932 0.466-1.863 2.329-4.192 4.657-4.192M157.904 16.215l0.932 0.466c4.658 0.932 6.987 7.453 12.11 5.124 0 3.261 0.466 6.521-0.466 8.85-1.397 3.726-5.59 3.726-8.85 3.726-31.208-1.863-49.374 11.179-68.471 22.358-5.124 3.261-10.713 5.59-14.906 9.782-20.029 18.632-41.921 35.866-47.045 70.335l-4.192 38.195c-0.466 4.192-5.124 8.384-4.192 13.508l3.26 22.824c-3.261-3.261-5.124 0.932-4.192 2.795 0.466 1.397 2.329 6.055 5.124 1.863 3.726 6.987 7.453 20.495 12.576 26.55 15.837 18.632 36.332 35.4 53.101 52.169 4.192-0.932 7.453-0.932 8.384-3.727 1.397 2.795-1.397 5.59-3.726 6.056 7.453 4.658 15.837 8.85 27.016 9.781 14.44 0.932 27.948 3.261 40.524 6.522 6.521-1.863 13.042-2.795 20.029-3.261 2.329 0 3.726-3.726 6.521-4.658l0.466-4.658c2.795 4.192 2.329-1.397 0.466-4.192 3.261 2.795 4.192 5.124 5.589 6.987 0-1.397 3.726-6.521 3.727-0.466l0.931-6.055c1.397-0.932 1.863 5.124 3.261 0.931 1.397-4.192 4.192-0.932 6.987-2.329-0.932 1.863-0.466 5.59 2.794 3.261l3.727-3.261c2.329 5.59 6.055 3.261 7.918 2.329 20.495-13.042 40.99-28.413 60.553-43.784l-0.466 6.055 2.329-7.453c2.329 2.329 4.192 0.466 5.124-0.931 2.795-4.658 6.521-9.316 12.577-13.508-7.453 20.029-16.303 35.866-27.482 48.908l-4.658 5.59c0 3.261-0.932 7.453-4.658 7.918-1.863 0.466-5.59-0.932-8.384 1.863-1.397 1.863 3.261 5.59-0.466 2.795-3.261-2.329-6.521 0-10.248 0.932-2.795 0.932 1.863 3.726 2.795 5.589 0.932 1.863 1.863 3.726 1.398 6.056l-5.124-5.59c-6.055 3.261-9.782 9.316-14.906 13.974-2.329 1.863-1.397 5.124-1.397 7.918-3.261 0-6.987-0.932-8.85 0.932-1.397 1.863-0.932 4.658-0.932 7.453-4.658-0.466-5.124-7.453-9.315-6.056-4.192 0.932-8.85 1.397-12.577 3.727 2.795 5.59-4.658 2.329-3.726 3.26-6.987-4.192-13.042-7.453-20.495-4.658-15.837-5.124-35.4-2.795-49.84-0.931 0-2.329 0.466-4.658-0.466-5.124-0.932 2.329-3.726 1.397-3.26 1.397-8.85-6.055-17.7-9.782-27.016-14.905-8.384 0.932-16.303-3.261-18.632-5.59-6.521-6.055-13.974-2.795-20.029-4.192-13.042-3.261-17.7-16.769-19.098-26.084-0.932-4.658-4.658-6.521-6.055-6.056-6.055-19.563-15.371-37.263-22.824-55.429-1.863-4.658-1.397-9.316-1.397-14.44 2.329 0.932 4.658 0.466 4.192-2.794-2.329-15.371-7.918-27.016-13.974-38.195 3.261-15.837 3.726-34.469 11.179-48.443 6.521-12.576 18.632-19.098 27.016-29.811 2.795-3.726 2.795-8.85 5.59-12.11 9.316-9.316 18.632-19.098 28.879-27.482 4.658-3.726 10.247 0 17.234-1.397 2.329-8.384 11.645-15.837 20.495-13.508 3.726 0.932 11.179-8.85 13.508-9.782 3.726-1.397 1.863 3.726 1.863 6.987 8.85-6.987 20.961-10.713 32.14-14.906" fill="black" fill-rule="nonzero" stroke="none" stroke-width="1" stroke-linecap="butt" stroke-linejoin="miter" stroke-miterlimit="10" stroke-dasharray="" stroke-dashoffset="0" font-family="none" font-weight="none" font-size="none" text-anchor="none" style="mix-blend-mode: normal"></path></g><g transform="matrix(1,0,0,1,64,144.72290701601605)"><svg viewBox="0 0 192 70.55418596796788" height="70.55418596796788" width="192"><g><svg viewBox="0 0 192 70.55418596796788" height="70.55418596796788" width="192"><g><svg viewBox="0 0 192 70.55418596796788" height="70.55418596796788" width="192"><g id="SvgjsG1763"><svg viewBox="0 0 192 70.55418596796788" height="70.55418596796788" width="192" id="SvgjsSvg1762"><g><svg viewBox="0 0 192 45.98084131611828" height="45.98084131611828" width="192"><g transform="matrix(1,0,0,1,0,0)"><svg width="192" viewBox="4 -28.75 120.05 28.75" height="45.98084131611828" data-palette-color="url(#6241b2e6-54ea-4630-8ecb-d88d1cc4f169)"><path d="M4-3.4L4-25.3 9.85-28.75 20.2-28.75 20.2-22.85 10.5-22.85 10.5-5.65 20-5.65 20 0 9.85 0 4-3.4ZM32.15-19.45L38.65-19.45 38.65-25.3 32.8-28.75 22.45-28.75 22.45-22.85 32.15-22.85 32.15-19.45ZM38.65-3.4L38.65-17.2 22.45-17.2 22.45-11.5 32.15-11.5 32.15-5.65 22.65-5.65 22.65 0 32.8 0 38.65-3.4ZM47.65 0L47.65-28.75 63.65-28.75 63.65-23.1 53.95-23.1 53.95-17.2 63.65-17.2 63.65-11.5 53.95-11.5 53.95-5.85 63.65-5.85 63.65 0 47.65 0ZM76.45 0L82.1-3.4 82.1-12.15 77.4-14.35 82.1-16.6 82.1-25.3 76.45-28.75 66.1-28.75 66.1-23.1 75.8-23.1 75.8-17.2 66.1-17.2 66.1-11.5 75.8-11.5 75.8-5.85 66.1-5.85 66.1 0 76.45 0ZM89.6-14.75L89.6-25.3 95.3-28.75 105.6-28.75 105.6-22.85 95.7-22.85 95.7-17.2 105.6-17.2 105.6-11.35 95.3-11.35 89.6-14.75ZM124.05-3.4L124.05-13.75 118.15-17.2 107.85-17.2 107.85-11.35 117.75-11.35 117.75-5.65 108.05-5.65 108.05 0 118.15 0 124.05-3.4ZM89.6-9.1L95.9-9.1 95.9-5.65 105.6-5.65 105.6 0 95.45 0 89.6-3.4 89.6-9.1ZM117.75-19.45L124.05-19.45 124.05-25.3 118.15-28.75 107.85-28.75 107.85-22.85 117.75-22.85 117.75-19.45Z" opacity="1" transform="matrix(1,0,0,1,0,0)" fill="black" class="wordmark-text-0" id="SvgjsPath1761"></path></svg></g></svg></g><g transform="matrix(1,0,0,1,0,52.69054960433152)"><svg viewBox="0 0 192 17.863636363636363" height="17.863636363636363" width="192"><g transform="matrix(1,0,0,1,0,0)"><svg width="192" viewBox="-12.5 -32 351.98 32.75" height="17.863636363636363" data-palette-color="url(#aedf4071-25af-4c6f-984e-e0cee2402480)"><path d="M19.7 0L10.2 0 15.7-31.25 24.65-31.25 29.75-20.15Q29.9-19.8 29.9-19.15L29.9-19.15Q29.9-18.8 29.88-18.43 29.85-18.05 29.8-17.75L29.8-17.75 30.2-17.75 32.6-31.25 42.1-31.25 36.6 0 27.65 0 22.55-11.1Q22.5-11.3 22.43-11.58 22.35-11.85 22.35-12.2L22.35-12.2Q22.35-12.5 22.38-12.85 22.4-13.2 22.45-13.5L22.45-13.5 22.05-13.5 19.7 0ZM14.15-31.25L13.75-29-7.4-31.25 14.15-31.25ZM13.3-26.45L12.95-24.2-8.25-26.45 13.3-26.45ZM12.5-21.65L12.1-19.4-9.1-21.65 12.5-21.65ZM11.65-16.85L11.25-14.6-9.95-16.85 11.65-16.85ZM10.8-12.05L10.4-9.8-10.8-12.05 10.8-12.05ZM9.95-7.25L9.55-5-11.65-7.25 9.95-7.25ZM9.1-2.4L8.7-0.15-12.5-2.4 9.1-2.4ZM64.65 0.75L64.65 0.75Q58.15 0.75 55.52-1.8 52.9-4.35 52.9-9.35L52.9-9.35Q52.9-10.75 53.07-12.3 53.25-13.85 53.55-15.6L53.55-15.6Q54.5-21.05 56.35-24.68 58.2-28.3 61.55-30.15 64.9-32 70.4-32L70.4-32Q76.9-32 79.52-29.48 82.15-26.95 82.15-21.9L82.15-21.9Q82.15-19.85 81.82-17.2 81.5-14.55 80.72-11.8 79.95-9.05 78.65-6.6 77.35-4.15 75.4-2.4L75.4-2.4Q73.4-0.65 70.75 0.05 68.1 0.75 64.65 0.75ZM58.05-29.6L58.05-29.6 42.75-31.25 60.3-31.25Q59.7-30.9 59.15-30.5 58.6-30.1 58.05-29.6ZM54.55-24.45L54.55-24.45 35.85-26.45 55.55-26.45Q55.3-25.95 55.05-25.48 54.8-25 54.55-24.45ZM64.65-20.8L62.35-7.8 66.3-7.8Q67.95-7.8 69.02-8.2 70.1-8.6 70.45-10.45L70.45-10.45 72.75-23.45 68.75-23.45Q67.1-23.45 66.05-23.05 65-22.65 64.65-20.8L64.65-20.8ZM53.5-21.65L52.9-19.6 33.5-21.65 53.5-21.65ZM51.95-14.75L51.95-14.75 32.3-16.85 52.3-16.85 52.15-15.85Q52.1-15.55 52.05-15.28 52-15 51.95-14.75ZM51.45-9.95L51.45-9.95 31.75-12.05 51.6-12.05Q51.45-10.95 51.45-9.95ZM51.85-5.15L51.85-5.15 32.4-7.25 51.5-7.25Q51.6-6.7 51.67-6.18 51.75-5.65 51.85-5.15ZM54.5-0.55L54.5-0.55 37.2-2.4 53-2.4Q53.65-1.25 54.5-0.55ZM122.49 0L103.49 0 108.99-31.25 118.49-31.25 114.39-8 123.89-8 122.49 0ZM107.44-31.25L107.04-29 85.89-31.25 107.44-31.25ZM106.59-26.45L106.24-24.2 85.04-26.45 106.59-26.45ZM105.79-21.65L105.39-19.4 84.19-21.65 105.79-21.65ZM104.94-16.85L104.54-14.6 83.34-16.85 104.94-16.85ZM104.09-12.05L103.69-9.8 82.49-12.05 104.09-12.05ZM103.24-7.25L102.84-5 81.64-7.25 103.24-7.25ZM102.39-2.4L101.99-0.15 80.79-2.4 102.39-2.4ZM144.09 0L134.59 0 140.09-31.25 149.59-31.25 144.09 0ZM138.54-31.25L138.14-29 116.99-31.25 138.54-31.25ZM137.69-26.45L137.34-24.2 116.14-26.45 137.69-26.45ZM136.89-21.65L136.49-19.4 115.29-21.65 136.89-21.65ZM136.04-16.85L135.64-14.6 114.44-16.85 136.04-16.85ZM135.19-12.05L134.79-9.8 113.59-12.05 135.19-12.05ZM134.34-7.25L133.94-5 112.74-7.25 134.34-7.25ZM133.49-2.4L133.09-0.15 111.89-2.4 133.49-2.4ZM169.59 0L159.69 0 166.99-31.25 179.39-31.25 180.29-15.35 180.64-15.35 187.14-31.25 199.54-31.25 195.84 0 185.89 0 187.99-15.15 187.64-15.15 181.39 0 174.14 0 173.09-15.15 172.84-15.15 169.59 0ZM165.44-31.25L164.94-29 143.99-31.25 165.44-31.25ZM164.34-26.45L163.79-24.2 142.84-26.45 164.34-26.45ZM163.19-21.65L162.69-19.4 141.69-21.65 163.19-21.65ZM162.09-16.85L161.54-14.6 140.54-16.85 162.09-16.85ZM160.94-12.05L160.44-9.8 139.39-12.05 160.94-12.05ZM159.84-7.25L159.29-5 138.24-7.25 159.84-7.25ZM158.69-2.4L158.19-0.15 137.09-2.4 158.69-2.4ZM220.44 0L210.94 0 216.44-31.25 225.94-31.25 220.44 0ZM214.89-31.25L214.49-29 193.34-31.25 214.89-31.25ZM214.04-26.45L213.69-24.2 192.49-26.45 214.04-26.45ZM213.24-21.65L212.84-19.4 191.64-21.65 213.24-21.65ZM212.39-16.85L211.99-14.6 190.79-16.85 212.39-16.85ZM211.54-12.05L211.14-9.8 189.94-12.05 211.54-12.05ZM210.69-7.25L210.29-5 189.09-7.25 210.69-7.25ZM209.84-2.4L209.44-0.15 188.24-2.4 209.84-2.4ZM251.78 0L242.28 0 246.33-23.25 239.48-23.25 240.93-31.25 264.18-31.25 262.73-23.25 255.83-23.25 251.78 0ZM239.33-31.25L238.93-29 217.78-31.25 239.33-31.25ZM238.48-26.45L238.13-24.2 216.93-26.45 238.48-26.45ZM244.53-21.65L244.13-19.4 222.93-21.65 244.53-21.65ZM243.68-16.85L243.28-14.6 222.08-16.85 243.68-16.85ZM242.83-12.05L242.43-9.8 221.23-12.05 242.83-12.05ZM241.98-7.25L241.58-5 220.38-7.25 241.98-7.25ZM241.13-2.4L240.73-0.15 219.53-2.4 241.13-2.4ZM293.63 0L272.48 0 277.98-31.25 298.88-31.25 296.28-23.25 286.03-23.25 285.33-19.05 294.83-19.05 293.53-11.8 284.03-11.8 283.38-8 295.03-8 293.63 0ZM276.43-31.25L276.03-29 254.88-31.25 276.43-31.25ZM275.58-26.45L275.23-24.2 254.03-26.45 275.58-26.45ZM274.78-21.65L274.38-19.4 253.18-21.65 274.78-21.65ZM273.93-16.85L273.53-14.6 252.33-16.85 273.93-16.85ZM273.08-12.05L272.68-9.8 251.48-12.05 273.08-12.05ZM272.23-7.25L271.83-5 250.63-7.25 272.23-7.25ZM271.38-2.4L270.98-0.15 249.78-2.4 271.38-2.4ZM322.08 0L308.78 0 314.28-31.25 327.58-31.25Q334.13-31.25 336.8-28.93 339.48-26.6 339.48-21.6L339.48-21.6Q339.48-19 338.88-15.6L338.88-15.6Q337.93-10.2 336.1-6.75 334.28-3.3 330.95-1.65 327.63 0 322.08 0L322.08 0ZM312.73-31.25L312.33-29 291.18-31.25 312.73-31.25ZM311.88-26.45L311.53-24.2 290.33-26.45 311.88-26.45ZM322.33-23.25L319.68-8 323.63-8Q325.28-8 326.35-8.4 327.43-8.8 327.78-10.65L327.78-10.65 329.53-20.6Q329.58-20.85 329.58-21.03 329.58-21.2 329.58-21.4L329.58-21.4Q329.58-22.7 328.65-22.98 327.73-23.25 326.28-23.25L326.28-23.25 322.33-23.25ZM311.08-21.65L310.68-19.4 289.48-21.65 311.08-21.65ZM310.23-16.85L309.83-14.6 288.63-16.85 310.23-16.85ZM309.38-12.05L308.98-9.8 287.78-12.05 309.38-12.05ZM308.53-7.25L308.13-5 286.93-7.25 308.53-7.25ZM307.68-2.4L307.28-0.15 286.08-2.4 307.68-2.4Z" opacity="1" transform="matrix(1,0,0,1,0,0)" fill="black" class="slogan-text-1" id="SvgjsPath1760"></path></svg></g></svg></g></svg></g></svg></g><g></g></svg></g></svg></g></svg></g><defs><mask></mask></defs></svg><rect width="320" height="360" fill="black" stroke="none" visibility="hidden"></rect></g></mask></svg><rect width="320" height="360" fill="black" stroke="none" visibility="hidden"></rect></g></mask></svg><rect width="320" height="360" fill="black" stroke="none" visibility="hidden"></rect></g></mask><linearGradient x1="0.054" x2="0.941" y1="0.5" y2="0.5" id="54479a5f-7540-4382-b89d-1a7635a3d441"><stop stop-color="#0f3054" offset="0"></stop><stop stop-color="#3b8dcb" offset="0.498"></stop><stop stop-color="#0f3054" offset="1"></stop></linearGradient></svg><rect width="320" height="360" fill="none" stroke="none" visibility="hidden"></rect></g></svg></g></svg>